<?xml version="1.0" standalone="no"?>
<!DOCTYPE svg PUBLIC "-//W3C//DTD SVG 20010904//EN"
 "http://www.w3.org/TR/2001/REC-SVG-20010904/DTD/svg10.dtd">
<svg version="1.0" xmlns="http://www.w3.org/2000/svg"
 width="1109.000000pt" height="1109.000000pt" viewBox="0 0 1109.000000 1109.000000"
 preserveAspectRatio="xMidYMid meet">
<metadata>
Created by potrace 1.11, written by Peter Selinger 2001-2013
</metadata>
<g transform="translate(0.000000,1109.000000) scale(0.100000,-0.100000)"
fill="#000000" stroke="none">
<path d="M5420 9147 c-3 -3 -34 -7 -70 -10 -145 -13 -243 -36 -420 -99 -468
-167 -865 -554 -1054 -1026 -59 -148 -105 -318 -121 -452 -3 -30 -8 -71 -10
-90 -3 -19 -7 -93 -11 -165 -3 -71 -8 -132 -11 -135 -2 -3 -473 -5 -1046 -6
-573 -1 -1073 -4 -1112 -8 -520 -48 -989 -324 -1277 -752 -116 -172 -215 -407
-252 -599 -9 -44 -18 -93 -22 -110 -3 -16 -7 -106 -8 -200 -3 -151 5 -257 28
-367 3 -16 8 -40 11 -55 52 -260 219 -562 434 -785 76 -80 277 -248 295 -248
3 0 34 -18 70 -41 172 -107 438 -197 669 -224 86 -10 362 -13 1166 -14 580 0
1055 -2 1056 -3 1 -2 5 -48 9 -103 3 -55 9 -112 11 -127 8 -48 13 -72 20 -113
4 -22 9 -47 10 -55 18 -98 105 -333 168 -450 39 -72 152 -250 166 -260 4 -3
14 -15 22 -27 54 -79 234 -252 359 -344 97 -72 282 -172 405 -218 33 -13 69
-27 80 -31 30 -13 214 -58 260 -64 22 -3 69 -10 105 -15 36 -5 139 -8 230 -6
153 3 204 7 270 20 14 3 39 8 55 11 17 3 47 9 68 15 20 5 55 14 77 19 100 25
342 132 411 181 15 10 30 19 33 19 9 0 146 98 206 149 396 330 650 853 659
1361 l1 35 1108 0 c1044 1 1220 4 1292 25 17 5 31 8 33 8 6 -3 120 26 172 44
458 157 824 512 1000 968 87 224 119 399 120 650 0 231 -19 356 -87 570 -37
118 -113 277 -180 379 -26 41 -48 77 -48 82 0 4 -3 9 -7 11 -5 2 -26 27 -48
56 -22 29 -90 101 -151 161 -252 245 -575 399 -914 437 -36 4 -563 8 -1172 8
-608 1 -1109 3 -1111 6 -3 3 -7 86 -10 185 -3 99 -8 187 -11 195 -2 8 -7 35
-10 60 -3 25 -7 54 -10 65 -2 11 -10 43 -16 70 -6 28 -13 57 -15 66 -13 64
-76 226 -132 339 -36 74 -69 137 -72 140 -3 3 -24 32 -45 65 -102 157 -261
325 -419 443 -52 40 -99 72 -103 72 -4 0 -15 6 -23 14 -30 27 -181 104 -278
144 -89 36 -249 85 -313 96 -66 11 -97 16 -125 22 -37 7 -359 16 -365 11z
m255 -951 c33 -5 60 -8 60 -7 0 1 38 -12 84 -29 215 -76 386 -223 491 -424 21
-40 43 -90 50 -112 47 -157 53 -199 54 -379 l1 -120 -45 -13 c-130 -39 -179
-55 -215 -71 -22 -10 -58 -26 -80 -36 -154 -68 -323 -191 -475 -347 l-66 -68
-50 51 c-44 46 -178 161 -251 215 -98 72 -287 166 -433 214 -58 19 -108 39
-111 43 -4 5 -5 80 -4 167 2 122 8 178 25 246 68 277 246 491 503 608 43 20
81 36 85 36 4 0 23 5 42 10 19 5 60 12 90 16 30 3 56 7 57 8 5 5 131 -1 188
-8z m-1943 -2043 c2 -38 5 -377 5 -754 2 -639 1 -687 -15 -691 -9 -2 -474 -3
-1032 -2 -847 1 -1085 5 -1140 19 -3 1 -20 5 -39 9 -62 15 -169 64 -231 106
-309 210 -419 600 -264 939 101 220 328 391 569 427 22 3 42 8 44 10 2 2 475
4 1052 4 l1047 0 4 -67z m5748 54 c58 -3 116 -8 129 -11 325 -76 548 -402 535
-781 -3 -83 -34 -219 -66 -293 -64 -147 -188 -284 -317 -351 -143 -74 -83 -71
-1307 -71 l-1094 0 0 755 0 754 103 3 c161 5 1900 0 2017 -5z m-3065 -751 c0
-354 -4 -648 -7 -651 -9 -9 -30 8 -119 97 -143 144 -221 354 -214 575 7 200
62 353 181 496 52 64 140 140 153 133 3 -2 6 -295 6 -650z m-1669 582 c73 -64
77 -68 121 -128 54 -72 96 -157 124 -250 33 -110 31 -292 -4 -407 -44 -147
-155 -310 -261 -382 l-42 -29 0 619 c0 340 3 619 7 619 3 0 28 -19 55 -42z
m877 -1811 c142 -143 298 -253 471 -332 81 -38 246 -95 273 -95 33 0 46 -17
45 -57 -7 -182 -71 -370 -175 -508 -254 -336 -700 -445 -1068 -260 -158 80
-304 226 -383 384 -64 127 -91 230 -100 381 l-5 75 107 35 c175 57 408 181
528 282 69 58 111 96 154 140 25 25 49 47 53 47 4 1 49 -41 100 -92z"/>
</g>
</svg>
