<?xml version="1.0" encoding="UTF-8" standalone="no"?>
<svg
   xmlns:dc="http://purl.org/dc/elements/1.1/"
   xmlns:cc="http://creativecommons.org/ns#"
   xmlns:rdf="http://www.w3.org/1999/02/22-rdf-syntax-ns#"
   xmlns:svg="http://www.w3.org/2000/svg"
   xmlns="http://www.w3.org/2000/svg"
   xmlns:sodipodi="http://sodipodi.sourceforge.net/DTD/sodipodi-0.dtd"
   xmlns:inkscape="http://www.inkscape.org/namespaces/inkscape"
   inkscape:version="1.0rc1 (09960d6, 2020-04-09)"
   sodipodi:docname="logo.svg"
   id="svg8"
   version="1.1"
   viewBox="0 0 210 297"
   height="297mm"
   width="210mm">
  <defs
     id="defs2">
    <rect
       id="rect1669"
       height="48.380952"
       width="139.09524"
       y="21.922619"
       x="-276.67857" />
    <filter
       height="1.067283"
       y="-0.033641493"
       width="1.2479022"
       x="-0.12395109"
       id="filter1681"
       style="color-interpolation-filters:sRGB"
       inkscape:collect="always">
      <feGaussianBlur
         id="feGaussianBlur1683"
         stdDeviation="4.6952584"
         inkscape:collect="always" />
    </filter>
  </defs>
  <sodipodi:namedview
     inkscape:showpageshadow="false"
     showborder="false"
     inkscape:window-maximized="0"
     inkscape:window-y="0"
     inkscape:window-x="0"
     inkscape:window-height="900"
     inkscape:window-width="1440"
     showgrid="false"
     inkscape:document-rotation="0"
     inkscape:current-layer="layer6"
     inkscape:document-units="mm"
     inkscape:cy="474.30398"
     inkscape:cx="233.25694"
     inkscape:zoom="0.60019713"
     inkscape:pageshadow="2"
     inkscape:pageopacity="0.0"
     borderopacity="1.0"
     bordercolor="#666666"
     pagecolor="#ffffff"
     id="base">
    <inkscape:grid
       id="grid28"
       type="xygrid" />
  </sodipodi:namedview>
  <metadata
     id="metadata5">
    <rdf:RDF>
      <cc:Work
         rdf:about="">
        <dc:format>image/svg+xml</dc:format>
        <dc:type
           rdf:resource="http://purl.org/dc/dcmitype/StillImage" />
        <dc:title></dc:title>
      </cc:Work>
    </rdf:RDF>
  </metadata>
  <g
     style="display:none;opacity:1"
     inkscape:label="Layer 2"
     id="layer2"
     inkscape:groupmode="layer" />
  <g
     style="display:inline"
     id="layer1"
     inkscape:groupmode="layer"
     inkscape:label="Layer 1" />
  <g
     sodipodi:insensitive="true"
     style="display:inline"
     inkscape:label="Layer 3"
     id="layer4"
     inkscape:groupmode="layer">
    <g
       id="g1650">
      <rect
         style="fill:none;stroke:#fd9300;stroke-width:25;stroke-linecap:round;stroke-linejoin:bevel;stroke-miterlimit:10;stroke-dasharray:none;stroke-opacity:1"
         id="rect38"
         width="84.666664"
         height="201.08333"
         x="-156.25533"
         y="-16.101782"
         rx="42.333332"
         ry="43.920834" />
      <rect
         ry="39.423111"
         rx="39.422882"
         y="-274.52429"
         x="-126.50864"
         height="158.75"
         width="78.845764"
         id="rect38-9"
         style="fill:none;stroke:#3a3a3c;stroke-width:25;stroke-linecap:round;stroke-linejoin:bevel;stroke-miterlimit:10;stroke-dasharray:none;stroke-opacity:1"
         transform="rotate(-90)" />
      <rect
         style="fill:none;stroke:#3a3a3c;stroke-width:25;stroke-linecap:round;stroke-linejoin:bevel;stroke-miterlimit:10;stroke-dasharray:none;stroke-opacity:1"
         id="rect38-9-3"
         width="78.845772"
         height="158.75"
         x="-126.77338"
         y="-112.3345"
         rx="39.422886"
         ry="35.983307"
         transform="rotate(-90)" />
      <rect
         style="fill:#ff9300;fill-opacity:1;stroke:#3a3a3c;stroke-width:0;stroke-linecap:round;stroke-linejoin:round;stroke-miterlimit:10;stroke-dasharray:none;stroke-dashoffset:0;stroke-opacity:1"
         id="rect1611"
         width="24.75"
         height="52.916664"
         x="-168.20537"
         y="24.114872"
         ry="15.875" />
      <rect
         ry="15.875"
         y="99.785782"
         x="-83.759521"
         height="52.916668"
         width="24.849998"
         id="rect1611-3"
         style="fill:#ff9300;fill-opacity:1;stroke:#3a3a3c;stroke-width:0;stroke-linecap:round;stroke-linejoin:round;stroke-miterlimit:10;stroke-dasharray:none;stroke-dashoffset:0;stroke-opacity:1"
         inkscape:transform-center-x="21.166667"
         inkscape:transform-center-y="108.10119" />
    </g>
  </g>
  <g
     style="display:inline"
     inkscape:label="Layer 4"
     id="layer5"
     inkscape:groupmode="layer">
    <text
       style="font-style:normal;font-weight:normal;font-size:10.58329999999999949px;line-height:1.25;font-family:sans-serif;white-space:pre;shape-inside:url(#rect1669);fill:#000000;fill-opacity:1;stroke:none;"
       id="text1667"
       xml:space="preserve" />
    <text
       transform="scale(0.97650445,1.0240609)"
       id="text1675"
       y="128.61676"
       x="61.977242"
       style="font-style:normal;font-variant:normal;font-weight:bold;font-stretch:normal;font-size:170.153px;line-height:1.25;font-family:Copperplate;-inkscape-font-specification:'Copperplate, Bold';font-variant-ligatures:normal;font-variant-caps:normal;font-variant-numeric:normal;font-variant-east-asian:normal;fill:#333333;fill-opacity:1;stroke:#fd9300;stroke-width:0.264581;stroke-opacity:1"
       xml:space="preserve"><tspan
         style="font-style:normal;font-variant:normal;font-weight:bold;font-stretch:normal;font-size:170.153px;font-family:Copperplate;-inkscape-font-specification:'Copperplate, Bold';font-variant-ligatures:normal;font-variant-caps:normal;font-variant-numeric:normal;font-variant-east-asian:normal;fill:#333333;stroke:#fd9300;stroke-width:0.264581;stroke-opacity:1"
         y="128.61676"
         x="61.977242"
         id="tspan1673"
         sodipodi:role="line">MIDL</tspan></text>
    <path
       transform="scale(0.26458333)"
       inkscape:connector-curvature="0"
       id="path1679"
       d="m 833.78745,322.16935 -2.81911,-167.48101 45.45592,0.0118 45.45591,0.0118 v 167.46918 167.46917 h -42.63681 -42.63681 z"
       style="fill:#fd9300;fill-opacity:1;stroke:#fd9300;stroke-width:0;stroke-linecap:round;stroke-linejoin:round;stroke-miterlimit:10;stroke-dasharray:none;stroke-dashoffset:0;stroke-opacity:1;filter:url(#filter1681)" />
    <path
       transform="scale(0.26458333)"
       inkscape:connector-curvature="0"
       id="path1685"
       d="m 833.78745,322.16935 -2.81911,-167.48101 45.45592,0.0118 45.45591,0.0118 v 167.46918 167.46917 h -42.63681 -42.63681 z"
       style="fill:#fd9300;fill-opacity:1;stroke:#fd9300;stroke-width:0;stroke-linecap:round;stroke-linejoin:round;stroke-miterlimit:10;stroke-dasharray:none;stroke-dashoffset:0;stroke-opacity:1" />
    <path
       transform="scale(0.26458333)"
       inkscape:connector-curvature="0"
       id="path1687"
       d="m 833.78745,322.16935 -2.81911,-167.48101 45.45592,0.0118 45.45591,0.0118 v 167.46918 167.46917 h -42.63681 -42.63681 z"
       style="fill:#fd9300;fill-opacity:1;stroke:#fd9300;stroke-width:0;stroke-linecap:round;stroke-linejoin:round;stroke-miterlimit:10;stroke-dasharray:none;stroke-dashoffset:0;stroke-opacity:1" />
    <path
       transform="scale(0.26458333)"
       inkscape:connector-curvature="0"
       id="path1689"
       d="m 833.78745,322.16935 -2.81911,-167.48101 45.45592,0.0118 45.45591,0.0118 v 167.46918 167.46917 h -42.63681 -42.63681 z"
       style="fill:#fd9300;fill-opacity:1;stroke:#fd9300;stroke-width:0;stroke-linecap:round;stroke-linejoin:round;stroke-miterlimit:10;stroke-dasharray:none;stroke-dashoffset:0;stroke-opacity:1" />
    <path
       transform="scale(0.26458333)"
       inkscape:connector-curvature="0"
       id="path1691"
       d="m 835.75317,337.31835 c 0,-83.78259 -2.61391,-159.14372 -5.80868,-167.46917 -4.82947,-12.58538 2.43009,-15.13718 43.0635,-15.13718 h 48.87218 v 167.46918 167.46917 h -43.0635 -43.0635 z"
       style="fill:#fd9300;fill-opacity:1;stroke:#fd9300;stroke-width:0;stroke-linecap:round;stroke-linejoin:round;stroke-miterlimit:10;stroke-dasharray:none;stroke-dashoffset:0;stroke-opacity:1" />
    <path
       transform="scale(0.26458333)"
       inkscape:connector-curvature="0"
       id="path1693"
       d="m 822.54147,488.27877 c 7.70136,-4.48563 8.36311,-17.53219 8.36311,-164.88141 V 163.38701 L 820.15201,159.065 c -7.16192,-2.87874 10.79134,-4.23804 53.76285,-4.07056 35.48348,0.13829 60.75202,1.23492 56.15231,2.43695 -7.7601,2.02793 -8.36311,14.01947 -8.36311,166.3096 0,126.82776 1.35748,164.67184 5.97365,166.5345 3.28551,1.32574 -20.90778,2.51481 -53.76285,2.64239 -42.76751,0.16607 -57.36084,-1.15174 -51.37339,-4.63911 z"
       style="fill:#fd9300;fill-opacity:1;stroke:#fd9300;stroke-width:0;stroke-linecap:round;stroke-linejoin:round;stroke-miterlimit:10;stroke-dasharray:none;stroke-dashoffset:0;stroke-opacity:1" />
    <path
       transform="scale(0.26458333)"
       inkscape:connector-curvature="0"
       id="path1695"
       d="m 822.54147,488.27877 c 7.70136,-4.48563 8.36311,-17.53219 8.36311,-164.88141 V 163.38701 L 820.15201,159.065 c -7.22446,-2.90387 10.41611,-4.37371 53.76285,-4.4796 46.0433,-0.11247 62.12088,1.23709 56.15231,4.71347 -7.70436,4.48737 -8.36311,17.61968 -8.36311,166.71863 0,125.00656 1.35977,162.39626 5.97365,164.25799 3.28551,1.32574 -20.90778,2.51481 -53.76285,2.64239 -42.76751,0.16607 -57.36084,-1.15174 -51.37339,-4.63911 z"
       style="fill:#fd9300;fill-opacity:1;stroke:#fd9300;stroke-width:0;stroke-linecap:round;stroke-linejoin:round;stroke-miterlimit:10;stroke-dasharray:none;stroke-dashoffset:0;stroke-opacity:1" />
    <path
       transform="scale(0.26458333)"
       inkscape:connector-curvature="0"
       id="path1697"
       d="m 823.39485,485.93075 c 6.52324,-6.52324 7.50973,-28.20135 7.50973,-165.02674 v -157.517 L 820.15201,159.065 c -7.22446,-2.90387 10.41611,-4.37371 53.76285,-4.4796 46.0433,-0.11247 62.12088,1.23709 56.15231,4.71347 -7.69953,4.48456 -8.36311,17.47935 -8.36311,163.77163 0,117.21744 1.50434,160.40492 5.7347,164.63528 4.46033,4.46032 -7.29733,5.7347 -52.90947,5.7347 -53.31289,0 -57.96147,-0.6827 -51.13444,-7.50973 z"
       style="fill:#fd9300;fill-opacity:1;stroke:#fd9300;stroke-width:0;stroke-linecap:round;stroke-linejoin:round;stroke-miterlimit:10;stroke-dasharray:none;stroke-dashoffset:0;stroke-opacity:1" />
    <path
       transform="scale(0.26458333)"
       inkscape:connector-curvature="0"
       id="path1699"
       d="m 841.27304,489.95478 c -11.82297,-1.45308 -15.20239,-3.81468 -13.14203,-9.18389 1.52546,-3.97529 2.77357,-78.01888 2.77357,-164.5413 V 158.91608 l 46.59447,-0.002 46.59447,-0.002 -1.31474,164.22342 -1.31473,164.22343 -24.96933,2.99936 c -13.73313,1.64966 -28.19509,2.67391 -32.1377,2.27611 -3.94261,-0.3978 -14.3304,-1.60351 -23.08398,-2.67936 z"
       style="fill:#fd9300;fill-opacity:1;stroke:#fd9300;stroke-width:0;stroke-linecap:round;stroke-linejoin:round;stroke-miterlimit:10;stroke-dasharray:none;stroke-dashoffset:0;stroke-opacity:1" />
    <path
       transform="scale(0.26458333)"
       inkscape:connector-curvature="0"
       id="path1701"
       d="m 841.27304,489.95478 c -11.82297,-1.45308 -15.20239,-3.81468 -13.14203,-9.18389 1.52546,-3.97529 2.77357,-78.01888 2.77357,-164.5413 V 158.91608 l 46.59447,-0.002 46.59447,-0.002 -1.31474,164.22342 -1.31473,164.22343 -24.96933,2.99936 c -13.73313,1.64966 -28.19509,2.67391 -32.1377,2.27611 -3.94261,-0.3978 -14.3304,-1.60351 -23.08398,-2.67936 z"
       style="fill:#fd9300;fill-opacity:1;stroke:#fd9300;stroke-width:0;stroke-linecap:round;stroke-linejoin:round;stroke-miterlimit:10;stroke-dasharray:none;stroke-dashoffset:0;stroke-opacity:1" />
    <path
       transform="scale(0.26458333)"
       inkscape:connector-curvature="0"
       id="path1703"
       d="m 838.89211,489.98132 c -9.66781,-1.44978 -12.73013,-4.07923 -10.75257,-9.23266 1.52077,-3.96306 2.76504,-77.99665 2.76504,-164.51907 V 158.91608 l 46.59447,-0.002 46.59447,-0.002 -1.31477,164.24175 -1.31478,164.24176 -22.0521,3.02258 c -22.85325,3.13238 -37.42096,3.02729 -60.51976,-0.43661 z"
       style="fill:#fd9300;fill-opacity:1;stroke:#fd9300;stroke-width:0;stroke-linecap:round;stroke-linejoin:round;stroke-miterlimit:10;stroke-dasharray:none;stroke-dashoffset:0;stroke-opacity:1" />
    <path
       transform="scale(0.26458333)"
       inkscape:connector-curvature="0"
       id="path1705"
       d="m 834.13787,490.38261 c -5.33452,-1.56535 -7.65123,-5.32655 -5.97365,-9.69827 1.5072,-3.92769 2.74036,-77.93233 2.74036,-164.45475 V 158.91608 l 46.59447,-0.003 46.59447,-0.003 -1.37896,163.46681 c -0.75843,89.90675 -2.20485,164.29269 -3.21425,165.30209 -3.10668,3.10668 -76.10915,5.41852 -85.36244,2.70325 z"
       style="fill:#fd9300;fill-opacity:1;stroke:#fd9300;stroke-width:0;stroke-linecap:round;stroke-linejoin:round;stroke-miterlimit:10;stroke-dasharray:none;stroke-dashoffset:0;stroke-opacity:1" />
    <path
       transform="scale(0.26458333)"
       inkscape:connector-curvature="0"
       id="path1715"
       d="m 826.03746,483.94518 c 1.79189,-4.66959 3.25798,-80.7532 3.25798,-169.07467 V 154.28599 h 48.48702 48.48701 l -1.52183,169.07318 -1.52182,169.07318 -50.22318,0.002 c -43.59214,0.001 -49.79301,-1.11947 -46.96518,-8.48867 z"
       style="fill:#fd9300;fill-opacity:1;stroke:#fd9300;stroke-width:0;stroke-linecap:round;stroke-linejoin:round;stroke-miterlimit:10;stroke-dasharray:none;stroke-dashoffset:0;stroke-opacity:1" />
    <path
       transform="scale(0.26458333)"
       inkscape:connector-curvature="0"
       id="path1717"
       d="m 826.03746,483.94518 c 1.79189,-4.66959 3.25798,-80.7532 3.25798,-169.07467 V 154.28599 h 48.30705 48.30705 v 169.07468 169.07468 h -51.56503 c -44.81539,0 -51.13858,-1.11133 -48.30705,-8.49017 z"
       style="fill:#fd9300;fill-opacity:1;stroke:#fd9300;stroke-width:0;stroke-linecap:round;stroke-linejoin:round;stroke-miterlimit:10;stroke-dasharray:none;stroke-dashoffset:0;stroke-opacity:1" />
    <path
       transform="scale(0.26458333)"
       inkscape:connector-curvature="0"
       id="path1719"
       d="m 825.91241,480.35858 c 1.78005,-6.64222 3.26943,-82.72582 3.30974,-169.07467 l 0.0733,-156.99792 h 48.30705 48.30705 v 169.07468 169.07468 h -51.61679 c -50.90917,0 -51.57242,-0.16556 -48.38034,-12.07677 z"
       style="fill:#fd9300;fill-opacity:1;stroke:#fd9300;stroke-width:0;stroke-linecap:round;stroke-linejoin:round;stroke-miterlimit:10;stroke-dasharray:none;stroke-dashoffset:0;stroke-opacity:1" />
    <text
       id="text1723"
       y="181.00931"
       x="211.17754"
       style="font-style:normal;font-weight:normal;font-size:10.5833px;line-height:1.25;font-family:sans-serif;fill:#000000;fill-opacity:1;stroke:none;stroke-width:0.264583"
       xml:space="preserve"><tspan
         style="stroke-width:0.264583"
         y="181.00931"
         x="211.17754"
         id="tspan1721"
         sodipodi:role="line"></tspan></text>
  </g>
  <g
     inkscape:label="Layer 5"
     id="layer6"
     inkscape:groupmode="layer">
    <text
       transform="scale(1.1434354,0.87455749)"
       id="text1728"
       y="151.72137"
       x="169.20818"
       style="font-style:normal;font-variant:normal;font-weight:normal;font-stretch:normal;font-size:202.22499999999999432px;line-height:1.25;font-family:Copperplate;-inkscape-font-specification:'Copperplate, Normal';font-variant-ligatures:normal;font-variant-caps:normal;font-variant-numeric:normal;font-variant-east-asian:normal;fill:#ff9300;fill-opacity:1;stroke:none;stroke-width:0.264583;"
       xml:space="preserve"><tspan
         style="font-style:normal;font-variant:normal;font-weight:normal;font-stretch:normal;font-size:202.22499999999999432px;font-family:Copperplate;-inkscape-font-specification:'Copperplate, Normal';font-variant-ligatures:normal;font-variant-caps:normal;font-variant-numeric:normal;font-variant-east-asian:normal;stroke-width:0.264583;fill:#ff9300;fill-opacity:1;"
         y="151.72137"
         x="169.20818"
         id="tspan1726"
         sodipodi:role="line">I</tspan></text>
  </g>
</svg>
