<?xml version="1.0" encoding="UTF-8" standalone="no"?>
<svg
   xmlns:dc="http://purl.org/dc/elements/1.1/"
   xmlns:cc="http://creativecommons.org/ns#"
   xmlns:rdf="http://www.w3.org/1999/02/22-rdf-syntax-ns#"
   xmlns:svg="http://www.w3.org/2000/svg"
   xmlns="http://www.w3.org/2000/svg"
   xmlns:sodipodi="http://sodipodi.sourceforge.net/DTD/sodipodi-0.dtd"
   xmlns:inkscape="http://www.inkscape.org/namespaces/inkscape"
   inkscape:version="1.0rc1 (09960d6, 2020-04-09)"
   sodipodi:docname="MIDLDEVLOGOBLCK.svg"
   id="svg8"
   version="1.1"
   viewBox="0 0 210 297"
   height="297mm"
   width="210mm"
   inkscape:export-filename="/Users/oksi/cryptospace/midl-website/img/cryptologo/MIDLDEVLOGOBLCK.png"
   inkscape:export-xdpi="96"
   inkscape:export-ydpi="96">
  <defs
     id="defs2">
    <rect
       id="rect1669"
       height="48.380952"
       width="139.09524"
       y="21.922619"
       x="-276.67857" />
    <filter
       height="1.067283"
       y="-0.033641493"
       width="1.2479022"
       x="-0.12395109"
       id="filter1681"
       style="color-interpolation-filters:sRGB"
       inkscape:collect="always">
      <feGaussianBlur
         id="feGaussianBlur1683"
         stdDeviation="4.6952584"
         inkscape:collect="always" />
    </filter>
  </defs>
  <sodipodi:namedview
     inkscape:lockguides="true"
     inkscape:showpageshadow="false"
     showborder="false"
     inkscape:window-maximized="0"
     inkscape:window-y="26"
     inkscape:window-x="0"
     inkscape:window-height="874"
     inkscape:window-width="1440"
     showgrid="true"
     inkscape:document-rotation="0"
     inkscape:current-layer="layer6"
     inkscape:document-units="mm"
     inkscape:cy="358.12445"
     inkscape:cx="431.86044"
     inkscape:zoom="0.42873254"
     inkscape:pageshadow="2"
     inkscape:pageopacity="0.0"
     borderopacity="1.0"
     bordercolor="#666666"
     pagecolor="#ffffff"
     id="base">
    <inkscape:grid
       id="grid28"
       type="xygrid" />
  </sodipodi:namedview>
  <metadata
     id="metadata5">
    <rdf:RDF>
      <cc:Work
         rdf:about="">
        <dc:format>image/svg+xml</dc:format>
        <dc:type
           rdf:resource="http://purl.org/dc/dcmitype/StillImage" />
        <dc:title />
      </cc:Work>
    </rdf:RDF>
  </metadata>
  <g
     style="display:none;opacity:1"
     inkscape:label="Layer 2"
     id="layer2"
     inkscape:groupmode="layer" />
  <g
     style="display:none"
     id="layer1"
     inkscape:groupmode="layer"
     inkscape:label="Layer 1" />
  <g
     sodipodi:insensitive="true"
     style="display:inline"
     inkscape:label="Layer 3"
     id="layer4"
     inkscape:groupmode="layer">
    <g
       transform="translate(0,-2.6458334)"
       id="g1650">
      <rect
         style="fill:none;stroke:#fd9300;stroke-width:25;stroke-linecap:round;stroke-linejoin:bevel;stroke-miterlimit:10;stroke-dasharray:none;stroke-opacity:1"
         id="rect38"
         width="84.666664"
         height="201.08333"
         x="-156.25533"
         y="-16.101782"
         rx="42.333332"
         ry="43.920834" />
      <rect
         ry="39.423111"
         rx="39.422882"
         y="-274.52429"
         x="-126.50864"
         height="158.75"
         width="78.845764"
         id="rect38-9"
         style="fill:none;stroke:#3a3a3c;stroke-width:25;stroke-linecap:round;stroke-linejoin:bevel;stroke-miterlimit:10;stroke-dasharray:none;stroke-opacity:1"
         transform="rotate(-90)" />
      <rect
         style="fill:none;stroke:#3a3a3c;stroke-width:25;stroke-linecap:round;stroke-linejoin:bevel;stroke-miterlimit:10;stroke-dasharray:none;stroke-opacity:1"
         id="rect38-9-3"
         width="78.845772"
         height="158.75"
         x="-126.77338"
         y="-112.3345"
         rx="39.422886"
         ry="35.983307"
         transform="rotate(-90)" />
      <rect
         style="fill:#ff9300;fill-opacity:1;stroke:#3a3a3c;stroke-width:0;stroke-linecap:round;stroke-linejoin:round;stroke-miterlimit:10;stroke-dasharray:none;stroke-dashoffset:0;stroke-opacity:1"
         id="rect1611"
         width="24.75"
         height="52.916664"
         x="-168.20537"
         y="24.114872"
         ry="15.875" />
      <rect
         ry="15.875"
         y="99.785782"
         x="-83.759521"
         height="52.916668"
         width="24.849998"
         id="rect1611-3"
         style="fill:#ff9300;fill-opacity:1;stroke:#3a3a3c;stroke-width:0;stroke-linecap:round;stroke-linejoin:round;stroke-miterlimit:10;stroke-dasharray:none;stroke-dashoffset:0;stroke-opacity:1"
         inkscape:transform-center-x="21.166667"
         inkscape:transform-center-y="108.10119" />
    </g>
  </g>
  <g
     style="display:inline;opacity:1"
     inkscape:label="Layer 4"
     id="layer5"
     inkscape:groupmode="layer">
    <text
       style="font-style:normal;font-weight:normal;font-size:10.58329999999999949px;line-height:1.25;font-family:sans-serif;white-space:pre;shape-inside:url(#rect1669);fill:#000000;fill-opacity:1;stroke:none;"
       id="text1667"
       xml:space="preserve" />
    <text
       transform="scale(0.97650443,1.0240609)"
       id="text1675"
       y="79.01062"
       x="79.318062"
       style="font-style:normal;font-variant:normal;font-weight:bold;font-stretch:normal;font-size:170.153px;line-height:1.25;font-family:Copperplate;-inkscape-font-specification:'Copperplate, Bold';font-variant-ligatures:normal;font-variant-caps:normal;font-variant-numeric:normal;font-variant-east-asian:normal;fill:#333333;fill-opacity:1;stroke:#fd9300;stroke-width:0.264581;stroke-opacity:1"
       xml:space="preserve"><tspan
         style="font-style:normal;font-variant:normal;font-weight:bold;font-stretch:normal;font-size:170.153px;font-family:Copperplate;-inkscape-font-specification:'Copperplate, Bold';font-variant-ligatures:normal;font-variant-caps:normal;font-variant-numeric:normal;font-variant-east-asian:normal;fill:#333333;fill-opacity:1;stroke:#fd9300;stroke-width:0.264581;stroke-opacity:1"
         y="79.01062"
         x="79.318062"
         id="tspan1673"
         sodipodi:role="line">MIDL</tspan></text>
    <path
       transform="matrix(0.26458333,0,0,0.26458333,16.404171,-50.800026)"
       inkscape:connector-curvature="0"
       id="path1679"
       d="m 833.78745,322.16935 -2.81911,-167.48101 45.45592,0.0118 45.45591,0.0118 v 167.46918 167.46917 h -42.63681 -42.63681 z"
       style="fill:#fd9300;fill-opacity:1;stroke:#fd9300;stroke-width:0;stroke-linecap:round;stroke-linejoin:round;stroke-miterlimit:10;stroke-dasharray:none;stroke-dashoffset:0;stroke-opacity:1;filter:url(#filter1681)" />
    <path
       inkscape:connector-curvature="0"
       id="path1685"
       d="m 237.01053,34.440607 -0.74589,-44.3126714 12.02688,0.0031 12.02687,0.0031 V 34.443722 78.753103 H 249.0374 237.75641 Z"
       style="fill:#fd9300;fill-opacity:1;stroke:#fd9300;stroke-width:0;stroke-linecap:round;stroke-linejoin:round;stroke-miterlimit:10;stroke-dasharray:none;stroke-dashoffset:0;stroke-opacity:1" />
    <path
       inkscape:connector-curvature="0"
       id="path1687"
       d="m 237.01053,34.440607 -0.74589,-44.3126714 12.02688,0.0031 12.02687,0.0031 V 34.443722 78.753103 H 249.0374 237.75641 Z"
       style="fill:#fd9300;fill-opacity:1;stroke:#fd9300;stroke-width:0;stroke-linecap:round;stroke-linejoin:round;stroke-miterlimit:10;stroke-dasharray:none;stroke-dashoffset:0;stroke-opacity:1" />
    <path
       inkscape:connector-curvature="0"
       id="path1689"
       d="m 237.01053,34.440607 -0.74589,-44.3126714 12.02688,0.0031 12.02687,0.0031 V 34.443722 78.753103 H 249.0374 237.75641 Z"
       style="fill:#fd9300;fill-opacity:1;stroke:#fd9300;stroke-width:0;stroke-linecap:round;stroke-linejoin:round;stroke-miterlimit:10;stroke-dasharray:none;stroke-dashoffset:0;stroke-opacity:1" />
    <path
       inkscape:connector-curvature="0"
       id="path1691"
       d="m 237.53062,38.44878 c 0,-22.167476 -0.69159,-42.1067671 -1.53688,-44.3095409 -1.27779,-3.3298798 0.64296,-4.0050435 11.39389,-4.0050435 h 12.93076 V 34.443737 78.753123 h -11.39388 -11.39389 z"
       style="fill:#fd9300;fill-opacity:1;stroke:#fd9300;stroke-width:0;stroke-linecap:round;stroke-linejoin:round;stroke-miterlimit:10;stroke-dasharray:none;stroke-dashoffset:0;stroke-opacity:1" />
    <path
       inkscape:connector-curvature="0"
       id="path1693"
       d="m 234.03503,78.390223 c 2.03765,-1.186811 2.21274,-4.638693 2.21274,-43.624705 V -7.5705426 l -2.84495,-1.1435314 c -1.89493,-0.7616658 2.85521,-1.1213134 14.22475,-1.0770014 9.38834,0.03659 16.07397,0.3267387 14.85697,0.6447757 -2.0532,0.5365567 -2.21274,3.7093159 -2.21274,44.0027367 0,33.556403 0.35916,43.569256 1.58052,44.062083 0.8693,0.35077 -5.53185,0.665377 -14.22475,0.699127 -11.31557,0.0439 -15.17672,-0.304727 -13.59254,-1.227424 z"
       style="fill:#fd9300;fill-opacity:1;stroke:#fd9300;stroke-width:0;stroke-linecap:round;stroke-linejoin:round;stroke-miterlimit:10;stroke-dasharray:none;stroke-dashoffset:0;stroke-opacity:1" />
    <path
       inkscape:connector-curvature="0"
       id="path1695"
       d="m 234.03503,78.390223 c 2.03765,-1.186811 2.21274,-4.638693 2.21274,-43.624705 V -7.5705426 l -2.84495,-1.1435314 c -1.91148,-0.7683148 2.75593,-1.1572094 14.22475,-1.1852264 12.18229,-0.02976 16.43615,0.3273126 14.85697,1.2471044 -2.03845,1.1872833 -2.21274,4.6618713 -2.21274,44.11096 0,33.074546 0.35977,42.967179 1.58052,43.459756 0.8693,0.35077 -5.53185,0.665377 -14.22475,0.699127 -11.31557,0.0439 -15.17672,-0.304727 -13.59254,-1.227424 z"
       style="fill:#fd9300;fill-opacity:1;stroke:#fd9300;stroke-width:0;stroke-linecap:round;stroke-linejoin:round;stroke-miterlimit:10;stroke-dasharray:none;stroke-dashoffset:0;stroke-opacity:1" />
    <path
       inkscape:connector-curvature="0"
       id="path1697"
       d="m 234.26082,77.768989 c 1.72594,-1.725931 1.98695,-7.461568 1.98695,-43.663169 V -7.5705426 l -2.84495,-1.1435314 c -1.91148,-0.7683148 2.75593,-1.1572094 14.22475,-1.1852264 12.18229,-0.02976 16.43615,0.3273126 14.85697,1.2471044 -2.03717,1.1865393 -2.21274,4.6247423 -2.21274,43.331233 0,31.013688 0.39802,42.440315 1.5173,43.559589 1.18013,1.180121 -1.93075,1.517301 -13.99896,1.517301 -14.1057,0 -15.33564,-0.18064 -13.52932,-1.986938 z"
       style="fill:#fd9300;fill-opacity:1;stroke:#fd9300;stroke-width:0;stroke-linecap:round;stroke-linejoin:round;stroke-miterlimit:10;stroke-dasharray:none;stroke-dashoffset:0;stroke-opacity:1" />
    <path
       inkscape:connector-curvature="0"
       id="path1699"
       d="m 238.99109,78.83367 c -3.12816,-0.384457 -4.0223,-1.009294 -3.47716,-2.429895 0.40361,-1.051784 0.73384,-20.642373 0.73384,-43.534729 V -8.753475 l 12.32812,-5.3e-4 12.32812,-5.29e-4 -0.34786,43.450769 -0.34786,43.450621 -6.60646,0.793574 c -3.63356,0.436467 -7.45996,0.707467 -8.5031,0.602217 -1.04315,-0.10525 -3.79159,-0.424257 -6.10764,-0.708907 z"
       style="fill:#fd9300;fill-opacity:1;stroke:#fd9300;stroke-width:0;stroke-linecap:round;stroke-linejoin:round;stroke-miterlimit:10;stroke-dasharray:none;stroke-dashoffset:0;stroke-opacity:1" />
    <path
       inkscape:connector-curvature="0"
       id="path1701"
       d="m 238.99109,78.83367 c -3.12816,-0.384457 -4.0223,-1.009294 -3.47716,-2.429895 0.40361,-1.051784 0.73384,-20.642373 0.73384,-43.534729 V -8.753475 l 12.32812,-5.3e-4 12.32812,-5.29e-4 -0.34786,43.450769 -0.34786,43.450621 -6.60646,0.793574 c -3.63356,0.436467 -7.45996,0.707467 -8.5031,0.602217 -1.04315,-0.10525 -3.79159,-0.424257 -6.10764,-0.708907 z"
       style="fill:#fd9300;fill-opacity:1;stroke:#fd9300;stroke-width:0;stroke-linecap:round;stroke-linejoin:round;stroke-miterlimit:10;stroke-dasharray:none;stroke-dashoffset:0;stroke-opacity:1" />
    <path
       inkscape:connector-curvature="0"
       id="path1703"
       d="m 238.36113,78.84069 c -2.55794,-0.383587 -3.36818,-1.079291 -2.84495,-2.442795 0.40237,-1.048554 0.73159,-20.636493 0.73159,-43.528849 V -8.753475 l 12.32812,-5.3e-4 12.32812,-5.29e-4 -0.34787,43.455618 -0.34787,43.455472 -5.83462,0.799714 c -6.04658,0.828777 -9.90096,0.800967 -16.01252,-0.11552 z"
       style="fill:#fd9300;fill-opacity:1;stroke:#fd9300;stroke-width:0;stroke-linecap:round;stroke-linejoin:round;stroke-miterlimit:10;stroke-dasharray:none;stroke-dashoffset:0;stroke-opacity:1" />
    <path
       inkscape:connector-curvature="0"
       id="path1705"
       d="m 237.10324,78.94686 c -1.41142,-0.414157 -2.02439,-1.409301 -1.58053,-2.565985 0.39878,-1.039194 0.72506,-20.619473 0.72506,-43.511829 V -8.753475 l 12.32812,-7.94e-4 12.32812,-7.94e-4 -0.36485,43.250582 c -0.20067,23.787778 -0.58337,43.468947 -0.85044,43.736017 -0.82198,0.821964 -20.13721,1.433641 -22.58548,0.715224 z"
       style="fill:#fd9300;fill-opacity:1;stroke:#fd9300;stroke-width:0;stroke-linecap:round;stroke-linejoin:round;stroke-miterlimit:10;stroke-dasharray:none;stroke-dashoffset:0;stroke-opacity:1" />
    <path
       inkscape:connector-curvature="0"
       id="path1715"
       d="m 234.96001,77.243642 c 0.4741,-1.235494 0.86201,-21.36583 0.86201,-44.734186 V -9.9785194 h 12.82885 12.82886 l -0.40265,44.7339334 -0.40265,44.733773 -13.28822,5.3e-4 c -11.53375,2.6e-4 -13.1744,-0.296187 -12.4262,-2.245945 z"
       style="fill:#fd9300;fill-opacity:1;stroke:#fd9300;stroke-width:0;stroke-linecap:round;stroke-linejoin:round;stroke-miterlimit:10;stroke-dasharray:none;stroke-dashoffset:0;stroke-opacity:1" />
    <path
       inkscape:connector-curvature="0"
       id="path1717"
       d="m 234.96001,77.243642 c 0.4741,-1.235494 0.86201,-21.36583 0.86201,-44.734186 V -9.9785194 h 12.78124 12.78124 V 34.755811 79.489977 h -13.64325 c -11.85741,0 -13.53042,-0.294027 -12.78124,-2.246335 z"
       style="fill:#fd9300;fill-opacity:1;stroke:#fd9300;stroke-width:0;stroke-linecap:round;stroke-linejoin:round;stroke-miterlimit:10;stroke-dasharray:none;stroke-dashoffset:0;stroke-opacity:1" />
    <path
       inkscape:connector-curvature="0"
       id="path1719"
       d="m 234.92692,76.294685 c 0.47097,-1.757408 0.86504,-21.887744 0.8757,-44.734184 l 0.0194,-41.5390204 h 12.78124 12.78124 V 34.755811 79.489977 h -13.65694 c -13.46972,0 -13.64521,-0.0438 -12.80063,-3.195292 z"
       style="fill:#fd9300;fill-opacity:1;stroke:#fd9300;stroke-width:0;stroke-linecap:round;stroke-linejoin:round;stroke-miterlimit:10;stroke-dasharray:none;stroke-dashoffset:0;stroke-opacity:1" />
    <text
       id="text1723"
       y="181.00931"
       x="211.17754"
       style="font-style:normal;font-weight:normal;font-size:10.5833px;line-height:1.25;font-family:sans-serif;fill:#000000;fill-opacity:1;stroke:none;stroke-width:0.264583"
       xml:space="preserve"><tspan
         style="stroke-width:0.264583"
         y="181.00931"
         x="211.17754"
         id="tspan1721"
         sodipodi:role="line" /></text>
    <g
       id="g2142"
       transform="translate(0,-4.7625002)">
      <g
         id="g2133">
        <text
           xml:space="preserve"
           style="font-style:normal;font-variant:normal;font-weight:bold;font-stretch:normal;font-size:141.111px;line-height:1.25;font-family:Copperplate;-inkscape-font-specification:'Copperplate, Bold';font-variant-ligatures:normal;font-variant-caps:normal;font-variant-numeric:normal;font-variant-east-asian:normal;display:inline;fill:#333333;fill-opacity:1;stroke:#fd9300;stroke-width:0.264581;stroke-opacity:1"
           x="181.98909"
           y="172.97507"
           id="text1675-4"
           transform="scale(0.97650442,1.0240609)"><tspan
             sodipodi:role="line"
             id="tspan1673-9"
             x="181.98909"
             y="172.97507"
             style="font-style:normal;font-variant:normal;font-weight:bold;font-stretch:normal;font-size:141.111px;font-family:Copperplate;-inkscape-font-specification:'Copperplate, Bold';font-variant-ligatures:normal;font-variant-caps:normal;font-variant-numeric:normal;font-variant-east-asian:normal;fill:#333333;stroke:#fd9300;stroke-width:0.264581;stroke-opacity:1">.DEV</tspan></text>
      </g>
    </g>
    <path
       inkscape:connector-curvature="0"
       id="path1808"
       d="m 231.03206,79.686767 c 0,-1.014214 0.26219,-1.289914 1.22674,-1.289914 2.41933,0 2.58609,-0.817514 2.98546,-14.635826 0.40704,-14.08369 0.37232,-45.806654 -0.0673,-61.4693395 l -0.27515,-9.8033941 -1.93488,-0.4779751 c -1.5436,-0.3813176 -1.93488,-0.7204283 -1.93488,-1.6768967 V -10.8655 h 17.28494 17.28495 v 1.1989216 c 0,0.9564684 -0.39129,1.2955791 -1.93489,1.6768967 l -1.93489,0.4779751 V 35.055674 77.622909 l 1.93489,0.477977 c 1.5436,0.381317 1.93489,0.720427 1.93489,1.676891 v 1.198911 H 248.317 231.03206 Z m 34.0539,0.0586 c 0,-0.982214 -2.9715,-1.384684 -3.32979,-0.450997 -0.22611,0.589227 -2.62481,0.675684 -13.82196,0.498257 -7.4516,-0.11808 -14.18687,-0.3914 -14.96727,-0.607377 -1.1247,-0.31127 -1.41892,-0.21974 -1.41892,0.441397 0,0.751047 1.66975,0.834104 16.76898,0.834104 13.95168,0 16.76896,-0.120187 16.76896,-0.715384 z m 0,-89.3810674 c 0,-0.4836476 -0.62386,-0.7087416 -1.93487,-0.6981106 -1.57943,0.01281 -1.76701,0.113419 -1.02109,0.5476796 0.50259,0.2925936 0.79985,0.7163637 0.66058,0.9417094 -0.13927,0.225348 0.32021,0.300104 1.02108,0.166124 0.70087,-0.13398 1.2743,-0.5648107 1.2743,-0.9574024 z m -31.21608,0.07503 2.06387,-0.7435346 -2.19286,-0.02265 c -1.6153,-0.01669 -2.19287,0.1812 -2.19287,0.7513056 0,0.9266825 -0.20542,0.9253645 2.32186,0.01487 z"
       style="fill:#333333;fill-opacity:1;stroke:#fd9300;stroke-width:0;stroke-linecap:round;stroke-linejoin:round;stroke-miterlimit:10;stroke-dasharray:none;stroke-dashoffset:0;stroke-opacity:1" />
  </g>
  <g
     style="display:inline"
     inkscape:label="Layer 5"
     id="layer6"
     inkscape:groupmode="layer">
    <text
       transform="scale(1.1434354,0.87455749)"
       id="text1728"
       y="151.72137"
       x="183.55447"
       style="font-style:normal;font-variant:normal;font-weight:normal;font-stretch:normal;font-size:202.225px;line-height:1.25;font-family:Copperplate;-inkscape-font-specification:'Copperplate, Normal';font-variant-ligatures:normal;font-variant-caps:normal;font-variant-numeric:normal;font-variant-east-asian:normal;fill:#ff9300;fill-opacity:1;stroke:none;stroke-width:0.264583"
       xml:space="preserve"><tspan
         style="font-style:normal;font-variant:normal;font-weight:normal;font-stretch:normal;font-size:202.225px;font-family:Copperplate;-inkscape-font-specification:'Copperplate, Normal';font-variant-ligatures:normal;font-variant-caps:normal;font-variant-numeric:normal;font-variant-east-asian:normal;fill:#ff9300;fill-opacity:1;stroke-width:0.264583"
         y="151.72137"
         x="183.55447"
         id="tspan1726"
         sodipodi:role="line" /></text>
    <text
       id="text1792"
       y="99.065933"
       x="26.830355"
       style="font-style:normal;font-weight:normal;font-size:10.5833px;line-height:1.25;font-family:sans-serif;fill:#000000;fill-opacity:1;stroke:none;stroke-width:0.264583"
       xml:space="preserve"><tspan
         style="stroke-width:0.264583"
         y="99.065933"
         x="26.830355"
         id="tspan1790"
         sodipodi:role="line" /></text>
    <g
       id="g2137"
       transform="matrix(1.1571501,0,0,1.1233225,52.815176,-32.982025)"
       style="stroke-width:0.877107">
      <text
         xml:space="preserve"
         style="font-style:normal;font-variant:normal;font-weight:normal;font-stretch:normal;font-size:141.111px;line-height:1.25;font-family:Copperplate;-inkscape-font-specification:'Copperplate, Normal';font-variant-ligatures:normal;font-variant-caps:normal;font-variant-numeric:normal;font-variant-east-asian:normal;fill:#fd9300;fill-opacity:1;stroke:none;stroke-width:0.232068"
         x="107.03519"
         y="178.97298"
         id="text1806"
         transform="scale(0.97990086,1.0205114)"><tspan
           sodipodi:role="line"
           id="tspan1804"
           x="107.03519"
           y="178.97298"
           style="font-style:normal;font-variant:normal;font-weight:normal;font-stretch:normal;font-size:141.111px;font-family:Copperplate;-inkscape-font-specification:'Copperplate, Normal';font-variant-ligatures:normal;font-variant-caps:normal;font-variant-numeric:normal;font-variant-east-asian:normal;fill:#fd9300;fill-opacity:1;stroke-width:0.232068">.</tspan></text>
    </g>
  </g>
</svg>
