<?xml version="1.0" encoding="UTF-8" standalone="no"?>
<svg
   xmlns:dc="http://purl.org/dc/elements/1.1/"
   xmlns:cc="http://creativecommons.org/ns#"
   xmlns:rdf="http://www.w3.org/1999/02/22-rdf-syntax-ns#"
   xmlns:svg="http://www.w3.org/2000/svg"
   xmlns="http://www.w3.org/2000/svg"
   xmlns:sodipodi="http://sodipodi.sourceforge.net/DTD/sodipodi-0.dtd"
   xmlns:inkscape="http://www.inkscape.org/namespaces/inkscape"
   width="210mm"
   height="297mm"
   viewBox="0 0 210 297"
   version="1.1"
   id="svg8"
   sodipodi:docname="MIDLDEVLOGOBLCK.svg"
   inkscape:version="1.0rc1 (09960d6, 2020-04-09)">
  <defs
     id="defs2">
    <rect
       x="-276.67857"
       y="21.922619"
       width="139.09524"
       height="48.380952"
       id="rect1669" />
    <filter
       height="1.0014391"
       y="-0.00071956369"
       width="1.0043279"
       x="-0.0021639364"
       id="filter2712"
       style="color-interpolation-filters:sRGB"
       inkscape:collect="always">
      <feGaussianBlur
         id="feGaussianBlur2714"
         stdDeviation="0.026880782"
         inkscape:collect="always" />
    </filter>
  </defs>
  <sodipodi:namedview
     inkscape:snap-text-baseline="false"
     id="base"
     pagecolor="#ffffff"
     bordercolor="#666666"
     borderopacity="1.0"
     inkscape:pageopacity="0.0"
     inkscape:pageshadow="2"
     inkscape:zoom="0.29743297"
     inkscape:cx="320.54242"
     inkscape:cy="346.12598"
     inkscape:document-units="mm"
     inkscape:current-layer="layer9"
     inkscape:document-rotation="0"
     showgrid="true"
     inkscape:window-width="1440"
     inkscape:window-height="874"
     inkscape:window-x="0"
     inkscape:window-y="26"
     inkscape:window-maximized="0"
     showborder="false"
     inkscape:showpageshadow="false"
     inkscape:lockguides="true">
    <inkscape:grid
       type="xygrid"
       id="grid28" />
  </sodipodi:namedview>
  <metadata
     id="metadata5">
    <rdf:RDF>
      <cc:Work
         rdf:about="">
        <dc:format>image/svg+xml</dc:format>
        <dc:type
           rdf:resource="http://purl.org/dc/dcmitype/StillImage" />
        <dc:title />
      </cc:Work>
    </rdf:RDF>
  </metadata>
  <g
     inkscape:groupmode="layer"
     id="layer2"
     inkscape:label="Layer 2"
     style="display:none;opacity:1" />
  <g
     inkscape:label="Layer 1"
     inkscape:groupmode="layer"
     id="layer1"
     style="display:none" />
  <g
     sodipodi:insensitive="true"
     inkscape:groupmode="layer"
     id="layer4"
     inkscape:label="Layer 3"
     style="display:inline">
    <rect
       style="fill:none;stroke:#fd9300;stroke-width:25;stroke-linecap:round;stroke-linejoin:bevel;stroke-miterlimit:10;stroke-dasharray:none;stroke-opacity:1"
       id="rect38"
       width="84.666664"
       height="201.08333"
       x="-156.25533"
       y="-18.747616"
       rx="42.333332"
       ry="43.920834" />
    <rect
       ry="39.423111"
       rx="39.422882"
       y="-274.52429"
       x="-123.8628"
       height="158.75"
       width="78.845764"
       id="rect38-9"
       style="fill:none;stroke:#3a3a3c;stroke-width:25;stroke-linecap:round;stroke-linejoin:bevel;stroke-miterlimit:10;stroke-dasharray:none;stroke-opacity:1"
       transform="rotate(-90)" />
    <rect
       style="fill:none;stroke:#3a3a3c;stroke-width:25;stroke-linecap:round;stroke-linejoin:bevel;stroke-miterlimit:10;stroke-dasharray:none;stroke-opacity:1"
       id="rect38-9-3"
       width="78.845772"
       height="158.75"
       x="-124.12754"
       y="-112.3345"
       rx="39.422886"
       ry="35.983307"
       transform="rotate(-90)" />
    <rect
       rx="0.50994992"
       style="fill:#ff9300;fill-opacity:1;stroke:#3a3a3c;stroke-width:0;stroke-linecap:round;stroke-linejoin:round;stroke-miterlimit:10;stroke-dasharray:none;stroke-dashoffset:0;stroke-opacity:1"
       id="rect1611"
       width="25.049999"
       height="59.764999"
       x="-168.84"
       y="18.520834"
       ry="17.929495" />
    <rect
       rx="2.8884728"
       ry="21.386417"
       y="91.28125"
       x="-83.998001"
       height="62.419792"
       width="25.057999"
       id="rect1611-3"
       style="fill:#ff9300;fill-opacity:1;stroke:#3a3a3c;stroke-width:0;stroke-linecap:round;stroke-linejoin:round;stroke-miterlimit:10;stroke-dasharray:none;stroke-dashoffset:0;stroke-opacity:1"
       inkscape:transform-center-x="21.252209"
       inkscape:transform-center-y="126.91299" />
  </g>
  <g
     inkscape:label="Layer 4"
     id="layer9"
     inkscape:groupmode="layer">
    <text
       id="text4645"
       y="85.195885"
       x="79.375"
       style="font-style:normal;font-variant:normal;font-weight:normal;font-stretch:normal;font-size:141.111px;line-height:1.25;font-family:Copperplate;-inkscape-font-specification:'Copperplate, Normal';font-variant-ligatures:normal;font-variant-caps:normal;font-variant-numeric:normal;font-variant-east-asian:normal;fill:#000000;fill-opacity:1;stroke:none;stroke-width:0.264583"
       xml:space="preserve"><tspan
         id="tspan4647"
         style="font-style:normal;font-variant:normal;font-weight:normal;font-stretch:normal;font-size:141.111px;font-family:Copperplate;-inkscape-font-specification:'Copperplate, Normal';font-variant-ligatures:normal;font-variant-caps:normal;font-variant-numeric:normal;font-variant-east-asian:normal;stroke-width:0.264583"
         y="85.195885"
         x="79.375"
         sodipodi:role="line">MIDL</tspan></text>
    <path
       inkscape:connector-curvature="0"
       id="path4651"
       d="m 208.85367,83.71108 c 0,-0.777729 0.41174,-1.235218 1.1117,-1.235218 2.58751,0 2.59436,-0.09079 2.5845,-34.246469 -0.005,-18.020312 -0.21364,-33.074146 -0.4632,-33.452971 -0.24956,-0.378823 -1.07908,-0.883918 -1.84337,-1.122434 -0.81214,-0.253447 -1.38963,-0.929693 -1.38963,-1.627267 0,-1.137846 0.54813,-1.193602 11.73459,-1.193602 10.84128,0 11.73458,0.08372 11.73458,1.099818 0,0.654862 -0.7496,1.382757 -1.85283,1.799179 l -1.85283,0.699366 v 33.652964 33.65297 l 1.85283,0.645903 c 1.01906,0.355243 1.85283,1.07724 1.85283,1.604439 0,0.832686 -1.54077,0.958543 -11.73458,0.958543 -11.32285,0 -11.73459,-0.04334 -11.73459,-1.235221 z"
       style="opacity:0.8;fill:none;stroke:none;stroke-width:0;stroke-linecap:round;stroke-linejoin:round;stroke-miterlimit:10;stroke-dasharray:none" />
    <path
       inkscape:connector-curvature="0"
       id="path4653"
       d="m 92.125434,83.71108 c 0,-0.67937 0.387151,-1.235218 0.860337,-1.235218 0.473184,0 1.029034,-0.439615 1.235218,-0.976929 0.206185,-0.537308 0.374883,-15.813371 0.374883,-33.946814 0,-32.337786 -0.02368,-32.982554 -1.23522,-33.63095 -0.679371,-0.363588 -1.235218,-1.20714 -1.235218,-1.874559 0,-1.167723 0.489156,-1.213491 12.969806,-1.213491 12.62486,0 12.9698,0.03337 12.9698,1.254604 0,0.690031 -0.41688,1.414576 -0.92641,1.610101 -0.50953,0.195524 -0.92642,0.952254 -0.92642,1.681617 0,1.131142 20.16952,38.721811 21.47911,40.031403 0.54569,0.54569 21.81329,-37.200369 22.25138,-39.492084 0.20111,-1.052026 -0.0618,-1.838121 -0.79362,-2.37327 -0.62386,-0.456176 -0.9366,-1.211236 -0.72745,-1.756283 0.3147,-0.820087 2.17065,-0.956088 13.04727,-0.956088 12.19295,0 12.68038,0.04665 12.68038,1.213491 0,0.667419 -0.55584,1.510971 -1.23521,1.874559 -1.21179,0.648528 -1.23523,1.293164 -1.23523,33.985035 0,32.655099 0.0248,33.339454 1.23523,34.095377 0.67937,0.424272 1.23521,1.260406 1.23521,1.858065 0,0.995736 -0.90429,1.086655 -10.80816,1.086655 -10.39643,0 -10.80818,-0.04706 -10.80818,-1.235221 0,-0.796628 0.41175,-1.235218 1.1596,-1.235218 2.49574,0 2.567,-0.75979 2.39899,-25.578659 L 165.9298,33.006791 151.77026,58.976549 c -7.78774,14.283365 -14.31896,25.962706 -14.51383,25.954096 -0.19486,-0.0086 -6.32967,-11.287591 -13.6329,-25.064401 -7.30324,-13.776817 -13.61718,-25.512079 -14.03098,-26.078366 -0.59626,-0.81598 -0.75645,3.984462 -0.77201,23.135955 -0.0207,25.422696 -0.0525,25.126429 2.75251,25.647068 0.67547,0.125372 1.32117,0.711126 1.43491,1.301673 0.18989,0.986044 -0.65433,1.073727 -10.33788,1.073727 -10.132907,0 -10.544646,-0.04823 -10.544646,-1.235221 z"
       style="opacity:0.8;fill:none;stroke:none;stroke-width:0;stroke-linecap:round;stroke-linejoin:round;stroke-miterlimit:10;stroke-dasharray:none" />
    <path
       inkscape:connector-curvature="0"
       id="path4655"
       d="m 254.55679,83.78827 c 0,-0.801706 0.48129,-1.29485 1.38963,-1.423855 l 1.38962,-0.197358 0.15968,-33.824977 0.15968,-33.824974 -1.5493,-0.705908 c -0.85212,-0.38825 -1.54931,-1.217147 -1.54931,-1.841995 0,-1.083252 1.09935,-1.136084 23.63978,-1.136084 30.86179,0 36.99123,0.813036 44.80567,5.943211 10.003,6.566956 14.91041,16.908836 14.91041,31.422183 0,17.671838 -7.55031,29.419058 -22.35687,34.784122 l -4.4877,1.626086 -28.25565,0.203028 c -27.8451,0.200073 -28.25564,0.185201 -28.25564,-1.023479 z m 54.56348,-12.379552 c 5.31043,-1.722367 8.87714,-5.072715 10.96299,-10.297924 1.30751,-3.275441 1.45769,-4.626094 1.47023,-13.221087 0.0135,-9.212372 -0.0513,-9.712534 -1.71939,-13.278612 -2.10275,-4.495395 -4.16052,-6.758421 -7.86442,-8.648873 -4.39719,-2.244286 -9.03412,-2.776908 -24.17538,-2.776908 h -14.0916 v 25.081377 25.081381 l 15.59464,-0.283984 c 13.96072,-0.254226 16.03767,-0.42767 19.82293,-1.65537 z"
       style="opacity:0.8;fill:#3a3a3c;fill-opacity:1;stroke:none;stroke-width:0;stroke-linecap:round;stroke-linejoin:round;stroke-miterlimit:10;stroke-dasharray:none" />
    <path
       inkscape:connector-curvature="0"
       id="path4657"
       d="m 92.125434,83.71108 c 0,-0.67937 0.387151,-1.235218 0.860337,-1.235218 0.473184,0 1.029034,-0.439615 1.235218,-0.976929 0.206185,-0.537308 0.374883,-15.813371 0.374883,-33.946814 0,-32.337786 -0.02368,-32.982554 -1.23522,-33.63095 -0.679371,-0.363588 -1.235218,-1.20714 -1.235218,-1.874559 0,-1.167723 0.489156,-1.213491 12.969806,-1.213491 12.62486,0 12.9698,0.03337 12.9698,1.254604 0,0.690031 -0.41688,1.414576 -0.92641,1.610101 -0.50953,0.195524 -0.92642,0.952254 -0.92642,1.681617 0,1.131142 20.16952,38.721811 21.47911,40.031403 0.54569,0.54569 21.81329,-37.200369 22.25138,-39.492084 0.20111,-1.052026 -0.0618,-1.838121 -0.79362,-2.37327 -0.62386,-0.456176 -0.9366,-1.211236 -0.72745,-1.756283 0.3147,-0.820087 2.17065,-0.956088 13.04727,-0.956088 12.19295,0 12.68038,0.04665 12.68038,1.213491 0,0.667419 -0.55584,1.510971 -1.23521,1.874559 -1.21179,0.648528 -1.23523,1.293164 -1.23523,33.985035 0,32.655099 0.0248,33.339454 1.23523,34.095377 0.67937,0.424272 1.23521,1.260406 1.23521,1.858065 0,0.995736 -0.90429,1.086655 -10.80816,1.086655 -10.39643,0 -10.80818,-0.04706 -10.80818,-1.235221 0,-0.796628 0.41175,-1.235218 1.1596,-1.235218 2.49574,0 2.567,-0.75979 2.39899,-25.578659 L 165.9298,33.006791 151.77026,58.976549 c -7.78774,14.283365 -14.31896,25.962706 -14.51383,25.954096 -0.19486,-0.0086 -6.32967,-11.287591 -13.6329,-25.064401 -7.30324,-13.776817 -13.61718,-25.512079 -14.03098,-26.078366 -0.59626,-0.81598 -0.75645,3.984462 -0.77201,23.135955 -0.0207,25.422696 -0.0525,25.126429 2.75251,25.647068 0.67547,0.125372 1.32117,0.711126 1.43491,1.301673 0.18989,0.986044 -0.65433,1.073727 -10.33788,1.073727 -10.132907,0 -10.544646,-0.04823 -10.544646,-1.235221 z"
       style="opacity:0.8;fill:#3a3a3c;fill-opacity:1;stroke:none;stroke-width:0;stroke-linecap:round;stroke-linejoin:round;stroke-miterlimit:10;stroke-dasharray:none" />
    <path
       inkscape:connector-curvature="0"
       id="path4659"
       d="m 208.85367,83.71108 c 0,-0.777729 0.41174,-1.235218 1.1117,-1.235218 2.58751,0 2.59436,-0.09079 2.5845,-34.246469 -0.005,-18.020312 -0.21364,-33.074146 -0.4632,-33.452971 -0.24956,-0.378823 -1.07908,-0.883918 -1.84337,-1.122434 -0.81214,-0.253447 -1.38963,-0.929693 -1.38963,-1.627267 0,-1.137846 0.54813,-1.193602 11.73459,-1.193602 10.84128,0 11.73458,0.08372 11.73458,1.099818 0,0.654862 -0.7496,1.382757 -1.85283,1.799179 l -1.85283,0.699366 v 33.652964 33.65297 l 1.85283,0.645903 c 1.01906,0.355243 1.85283,1.07724 1.85283,1.604439 0,0.832686 -1.54077,0.958543 -11.73458,0.958543 -11.32285,0 -11.73459,-0.04334 -11.73459,-1.235221 z"
       style="opacity:0.8;fill:#3a3a3c;fill-opacity:1;stroke:none;stroke-width:0;stroke-linecap:round;stroke-linejoin:round;stroke-miterlimit:10;stroke-dasharray:none" />
    <path
       inkscape:connector-curvature="0"
       id="path4661"
       d="M 426.71573,86.644727 425.79329,85.255106 390.51023,85.0859 c -34.67155,-0.166275 -35.28306,-0.19036 -35.28306,-1.389623 0,-0.873276 0.4177,-1.220415 1.46841,-1.220415 0.80762,0 1.78282,-0.378843 2.1671,-0.841864 0.50509,-0.608605 0.65439,-9.977904 0.53882,-33.814145 l -0.15986,-32.972269 -1.99385,-0.926415 c -1.12035,-0.520541 -1.99974,-1.399934 -2.00723,-2.007232 -0.0122,-0.992854 0.96676,-1.080818 12.03002,-1.080818 11.1374,0 12.04338,0.08273 12.04338,1.099818 0,0.654862 -0.74959,1.382757 -1.85282,1.799179 l -1.85282,0.699366 v 29.114304 29.114312 l 24.24117,-0.187396 c 24.92105,-0.192657 27.02042,-0.400847 27.02042,-2.67957 0,-0.497577 0.55586,-0.904684 1.23523,-0.904684 1.18208,0 1.23521,0.411739 1.23521,9.57295 0,7.720962 -0.16465,9.572953 -0.85109,9.572953 -0.4681,0 -1.26619,-0.625332 -1.77353,-1.389624 z"
       style="opacity:0.8;fill:#3a3a3c;fill-opacity:1;stroke:none;stroke-width:0;stroke-linecap:round;stroke-linejoin:round;stroke-miterlimit:10;stroke-dasharray:none" />
    <path
       inkscape:connector-curvature="0"
       id="path4665"
       d="m 91.507822,84.24511 c 0,-0.385654 0.694812,-1.345118 1.544026,-2.132142 l 1.544024,-1.430954 -0.0084,-31.990803 c -0.0046,-17.594941 -0.169296,-32.590433 -0.365906,-33.323319 -0.196612,-0.732888 -0.887626,-1.47116 -1.535591,-1.640607 -0.685837,-0.17935 -1.178121,-0.848389 -1.178121,-1.601126 0,-1.27222 0.213815,-1.29304 13.278606,-1.29304 13.15597,0 13.27862,0.0122 13.27862,1.321536 0,0.726845 -0.47538,1.669134 -1.05638,2.093976 -0.91434,0.668581 -0.95073,1.009906 -0.27065,2.538526 1.38737,3.118406 20.77022,38.510801 21.09152,38.512365 0.34514,0.0017 11.10804,-18.789318 17.86086,-31.183372 4.51952,-8.295077 5.02173,-9.813542 3.44569,-10.418326 -0.50953,-0.195525 -0.92641,-0.92007 -0.92641,-1.610101 0,-1.222163 0.34335,-1.254604 13.27861,-1.254604 13.06479,0 13.27861,0.02082 13.27861,1.29304 0,0.752737 -0.49229,1.421776 -1.17813,1.601126 -0.64796,0.169447 -1.33897,0.907719 -1.53558,1.640607 -0.62955,2.346719 -0.41562,63.830932 0.22798,65.523738 0.33128,0.871331 1.02609,1.584232 1.54402,1.584232 0.52997,0 0.94171,0.540076 0.94171,1.235218 0,1.189474 -0.41174,1.235221 -11.11698,1.235221 -10.49286,0 -11.11697,-0.06558 -11.11697,-1.168265 0,-0.721855 0.57304,-1.312093 1.49966,-1.544659 2.11871,-0.531762 2.30017,-2.960415 2.08156,-27.858764 l -0.18441,-20.998738 -14.01278,25.618199 c -7.70702,14.090006 -14.24373,25.695179 -14.52601,25.78927 -0.28229,0.09409 -6.6221,-11.262243 -14.08847,-25.236304 l -13.57523,-25.407392 -0.39617,3.632577 c -0.53075,4.866495 -0.62367,34.666021 -0.12457,39.951099 0.37808,4.003569 0.48034,4.21949 2.15725,4.554871 1.18431,0.23686 1.76035,0.731009 1.76035,1.510088 0,1.088165 -0.65193,1.158018 -10.80817,1.158018 -7.652588,0 -10.808176,-0.204719 -10.808176,-0.701191 z"
       style="opacity:0.8;fill:#3a3a3c;fill-opacity:1;stroke:none;stroke-width:0;stroke-linecap:round;stroke-linejoin:round;stroke-miterlimit:10;stroke-dasharray:none" />
    <path
       inkscape:connector-curvature="0"
       id="path4667"
       d="m 208.85367,83.778036 c 0,-0.712417 0.56844,-1.310931 1.4568,-1.533901 1.229,-0.308459 1.51789,-0.874239 1.84746,-3.618205 0.509,-4.237847 0.50639,-58.737404 -0.003,-61.820152 -0.28338,-1.715068 -0.79073,-2.517132 -1.84603,-2.918359 -0.86728,-0.329737 -1.45526,-1.058545 -1.45526,-1.803794 0,-1.211885 0.36375,-1.250506 11.77754,-1.250506 h 11.77754 l -0.19736,1.364303 c -0.12468,0.861933 -0.76591,1.497563 -1.74138,1.726197 l -1.54402,0.361895 -0.15981,33.253362 c -0.11555,24.04396 0.0337,33.486503 0.53883,34.095177 0.38425,0.462992 1.22046,0.841809 1.85823,0.841809 0.74786,0 1.1596,0.43859 1.1596,1.235218 0,1.191877 -0.41174,1.235221 -11.73459,1.235221 -11.09867,0 -11.73458,-0.06331 -11.73458,-1.168265 z"
       style="opacity:0.8;fill:#3a3a3c;fill-opacity:1;stroke:none;stroke-width:0;stroke-linecap:round;stroke-linejoin:round;stroke-miterlimit:10;stroke-dasharray:none" />
    <path
       inkscape:connector-curvature="0"
       id="path4669"
       d="m 254.55679,83.857535 c 0,-0.598821 0.62533,-1.363115 1.38963,-1.698427 l 1.38962,-0.60966 0.15973,-33.5186 0.15972,-33.518592 -1.54935,-0.589063 c -0.94996,-0.361177 -1.54935,-1.072832 -1.54935,-1.839568 0,-1.234948 0.31015,-1.250506 24.93229,-1.250506 28.4897,0 32.83098,0.437944 40.39211,4.074697 8.5275,4.101566 14.8421,12.30137 17.19789,22.332256 1.51421,6.447591 0.91893,20.09213 -1.11455,25.546125 -3.28536,8.811676 -8.21844,14.560008 -15.57743,18.151809 -8.045,3.926628 -8.83523,4.008295 -38.78524,4.008295 -25.42069,0 -27.04507,-0.06539 -27.04507,-1.088766 z m 52.07074,-11.971611 c 11.19983,-2.373296 16.09547,-11.371781 14.99399,-27.559973 -0.48665,-7.152136 -2.16496,-11.825733 -5.41306,-15.073856 -4.88318,-4.883165 -10.6543,-6.066781 -29.58066,-6.066781 h -12.30749 v 25.110901 25.110906 l 14.55092,-0.420987 c 8.00304,-0.231542 15.99335,-0.726637 17.7563,-1.10021 z"
       style="opacity:0.8;fill:#3a3a3c;fill-opacity:1;stroke:none;stroke-width:0;stroke-linecap:round;stroke-linejoin:round;stroke-miterlimit:10;stroke-dasharray:none" />
    <path
       inkscape:connector-curvature="0"
       id="path4671"
       d="m 426.86991,86.79913 c -0.64318,-1.201777 -1.29315,-1.23522 -24.00919,-1.23522 -12.84148,0 -28.81233,-0.183005 -35.49084,-0.40667 -10.90462,-0.365205 -12.14271,-0.514766 -12.14271,-1.466824 0,-0.671621 0.64551,-1.189252 1.76133,-1.412417 1.65188,-0.330372 1.7862,-0.590256 2.16165,-4.182263 0.52477,-5.020772 0.43137,-57.498844 -0.10869,-61.059387 -0.34375,-2.266407 -0.68993,-2.815867 -1.96144,-3.113367 -0.97576,-0.228294 -1.61668,-0.863391 -1.74138,-1.72556 l -0.19738,-1.364303 h 12.08635 c 11.77674,0 12.08635,0.03246 12.08635,1.267349 0,0.85289 -0.60592,1.478574 -1.85282,1.913247 l -1.85282,0.645898 v 28.658436 28.658447 h 24.45657 24.4566 l 1.79234,-1.918705 c 3.21903,-3.445976 3.64414,-2.46793 3.64414,8.384227 0,9.123338 -0.0593,9.592333 -1.21349,9.592333 -0.66744,0 -1.51098,-0.55585 -1.87457,-1.235221 z"
       style="opacity:0.8;fill:#3a3a3c;fill-opacity:1;stroke:none;stroke-width:0;stroke-linecap:round;stroke-linejoin:round;stroke-miterlimit:10;stroke-dasharray:none" />
    <text
       id="text4691"
       y="148.6956"
       x="181.50351"
       style="font-style:normal;font-variant:normal;font-weight:normal;font-stretch:normal;font-size:105.83299999999999841px;line-height:1.25;font-family:Copperplate;-inkscape-font-specification:'Copperplate, Normal';font-variant-ligatures:normal;font-variant-caps:normal;font-variant-numeric:normal;font-variant-east-asian:normal;fill:#3a3a3c;fill-opacity:1;stroke:none;stroke-width:0.264583;"
       xml:space="preserve"><tspan
         style="font-style:normal;font-variant:normal;font-weight:normal;font-stretch:normal;font-size:105.83299999999999841px;font-family:Copperplate;-inkscape-font-specification:'Copperplate, Normal';font-variant-ligatures:normal;font-variant-caps:normal;font-variant-numeric:normal;font-variant-east-asian:normal;stroke-width:0.264583;fill:#3a3a3c;fill-opacity:1;"
         y="148.6956"
         x="181.50351"
         id="tspan4689"
         sodipodi:role="line">.DEV</tspan></text>
    <path
       transform="scale(0.26458333)"
       inkscape:connector-curvature="0"
       id="path4693"
       d="m 734.26522,560.28089 c -8.82865,-3.56717 -14.91161,-13.80821 -14.91161,-25.10461 0,-8.74108 1.2806,-11.70346 7.93653,-18.35939 6.47576,-6.47576 9.71938,-7.93653 17.62297,-7.93653 12.91857,0 22.0069,5.06113 26.64688,14.83916 4.67226,9.84605 4.74792,13.42636 0.49866,23.59628 -5.32357,12.74109 -23.18378,18.86806 -37.79343,12.96509 z"
       style="opacity:0.8;fill:#fd9300;fill-opacity:1;stroke:none;stroke-width:0;stroke-linecap:round;stroke-linejoin:round;stroke-miterlimit:10;stroke-dasharray:none" />
    <path
       transform="scale(0.26458333)"
       inkscape:connector-curvature="0"
       id="path4695"
       d="m 736.95003,561.38495 c -23.75254,-8.41051 -25.84607,-38.56068 -3.50934,-50.54 10.64575,-5.70938 18.57133,-5.4211 28.1342,1.02332 14.96655,10.08596 18.48147,28.44017 7.86307,41.05942 -5.36641,6.37763 -8.52302,8.1162 -19.7388,10.87158 -1.92577,0.47311 -7.66288,-0.61334 -12.74913,-2.41432 z"
       style="opacity:0.8;fill:#fd9300;fill-opacity:1;stroke:none;stroke-width:0;stroke-linecap:round;stroke-linejoin:round;stroke-miterlimit:10;stroke-dasharray:none" />
  </g>
</svg>
