<?xml version="1.0" encoding="UTF-8" standalone="no"?>
<svg
   xmlns:dc="http://purl.org/dc/elements/1.1/"
   xmlns:cc="http://creativecommons.org/ns#"
   xmlns:rdf="http://www.w3.org/1999/02/22-rdf-syntax-ns#"
   xmlns:svg="http://www.w3.org/2000/svg"
   xmlns="http://www.w3.org/2000/svg"
   xmlns:sodipodi="http://sodipodi.sourceforge.net/DTD/sodipodi-0.dtd"
   xmlns:inkscape="http://www.inkscape.org/namespaces/inkscape"
   inkscape:version="1.0rc1 (09960d6, 2020-04-09)"
   sodipodi:docname="MIDLLOGOBLCK.svg"
   id="svg8"
   version="1.1"
   viewBox="0 0 210 297"
   height="297mm"
   width="210mm">
  <defs
     id="defs2">
    <rect
       id="rect1669"
       height="48.380952"
       width="139.09524"
       y="21.922619"
       x="-276.67857" />
    <filter
       height="1.067283"
       y="-0.033641493"
       width="1.2479022"
       x="-0.12395109"
       id="filter1681"
       style="color-interpolation-filters:sRGB"
       inkscape:collect="always">
      <feGaussianBlur
         id="feGaussianBlur1683"
         stdDeviation="4.6952584"
         inkscape:collect="always" />
    </filter>
  </defs>
  <sodipodi:namedview
     inkscape:showpageshadow="false"
     showborder="false"
     inkscape:window-maximized="0"
     inkscape:window-y="0"
     inkscape:window-x="0"
     inkscape:window-height="900"
     inkscape:window-width="1440"
     showgrid="false"
     inkscape:document-rotation="0"
     inkscape:current-layer="layer4"
     inkscape:document-units="mm"
     inkscape:cy="173.6157"
     inkscape:cx="360.31651"
     inkscape:zoom="0.23091841"
     inkscape:pageshadow="2"
     inkscape:pageopacity="0.0"
     borderopacity="1.0"
     bordercolor="#666666"
     pagecolor="#ffffff"
     id="base">
    <inkscape:grid
       id="grid28"
       type="xygrid" />
  </sodipodi:namedview>
  <metadata
     id="metadata5">
    <rdf:RDF>
      <cc:Work
         rdf:about="">
        <dc:format>image/svg+xml</dc:format>
        <dc:type
           rdf:resource="http://purl.org/dc/dcmitype/StillImage" />
        <dc:title></dc:title>
      </cc:Work>
    </rdf:RDF>
  </metadata>
  <g
     style="display:inline;opacity:1"
     inkscape:label="Layer 2"
     id="layer2"
     inkscape:groupmode="layer" />
  <g
     style="display:inline"
     id="layer1"
     inkscape:groupmode="layer"
     inkscape:label="Layer 1" />
  <g
     sodipodi:insensitive="true"
     style="display:inline"
     inkscape:label="Layer 3"
     id="layer4"
     inkscape:groupmode="layer">
    <g
       id="g1650">
      <rect
         style="fill:none;stroke:#fd9300;stroke-width:25;stroke-linecap:round;stroke-linejoin:bevel;stroke-miterlimit:10;stroke-dasharray:none;stroke-opacity:1"
         id="rect38"
         width="84.666664"
         height="201.08333"
         x="-156.25533"
         y="-16.101782"
         rx="42.333332"
         ry="43.920834" />
      <rect
         ry="39.423111"
         rx="39.422882"
         y="-274.52429"
         x="-126.50864"
         height="158.75"
         width="78.845764"
         id="rect38-9"
         style="fill:none;stroke:#3a3a3c;stroke-width:25;stroke-linecap:round;stroke-linejoin:bevel;stroke-miterlimit:10;stroke-dasharray:none;stroke-opacity:1"
         transform="rotate(-90)" />
      <rect
         style="fill:none;stroke:#3a3a3c;stroke-width:25;stroke-linecap:round;stroke-linejoin:bevel;stroke-miterlimit:10;stroke-dasharray:none;stroke-opacity:1"
         id="rect38-9-3"
         width="78.845772"
         height="158.75"
         x="-126.77338"
         y="-112.3345"
         rx="39.422886"
         ry="35.983307"
         transform="rotate(-90)" />
      <rect
         style="fill:#ff9300;fill-opacity:1;stroke:#3a3a3c;stroke-width:0;stroke-linecap:round;stroke-linejoin:round;stroke-miterlimit:10;stroke-dasharray:none;stroke-dashoffset:0;stroke-opacity:1"
         id="rect1611"
         width="24.75"
         height="52.916664"
         x="-168.20537"
         y="24.114872"
         ry="15.875" />
      <rect
         ry="15.875"
         y="99.785782"
         x="-83.759521"
         height="52.916668"
         width="24.849998"
         id="rect1611-3"
         style="fill:#ff9300;fill-opacity:1;stroke:#3a3a3c;stroke-width:0;stroke-linecap:round;stroke-linejoin:round;stroke-miterlimit:10;stroke-dasharray:none;stroke-dashoffset:0;stroke-opacity:1"
         inkscape:transform-center-x="21.166667"
         inkscape:transform-center-y="108.10119" />
    </g>
  </g>
  <g
     style="display:inline"
     inkscape:label="Layer 4"
     id="layer5"
     inkscape:groupmode="layer">
    <text
       style="font-style:normal;font-weight:normal;font-size:10.58329999999999949px;line-height:1.25;font-family:sans-serif;white-space:pre;shape-inside:url(#rect1669);fill:#000000;fill-opacity:1;stroke:none;"
       id="text1667"
       xml:space="preserve" />
    <text
       transform="scale(0.97650443,1.0240609)"
       id="text1675"
       y="128.61676"
       x="78.776161"
       style="font-style:normal;font-variant:normal;font-weight:bold;font-stretch:normal;font-size:170.153px;line-height:1.25;font-family:Copperplate;-inkscape-font-specification:'Copperplate, Bold';font-variant-ligatures:normal;font-variant-caps:normal;font-variant-numeric:normal;font-variant-east-asian:normal;fill:#333333;fill-opacity:1;stroke:#fd9300;stroke-width:0.264581;stroke-opacity:1"
       xml:space="preserve"><tspan
         style="font-style:normal;font-variant:normal;font-weight:bold;font-stretch:normal;font-size:170.153px;font-family:Copperplate;-inkscape-font-specification:'Copperplate, Bold';font-variant-ligatures:normal;font-variant-caps:normal;font-variant-numeric:normal;font-variant-east-asian:normal;fill:#333333;stroke:#fd9300;stroke-width:0.264581;stroke-opacity:1"
         y="128.61676"
         x="78.776161"
         id="tspan1673"
         sodipodi:role="line">MIDL</tspan></text>
    <path
       transform="matrix(0.26458333,0,0,0.26458333,16.404171,0)"
       inkscape:connector-curvature="0"
       id="path1679"
       d="m 833.78745,322.16935 -2.81911,-167.48101 45.45592,0.0118 45.45591,0.0118 v 167.46918 167.46917 h -42.63681 -42.63681 z"
       style="fill:#fd9300;fill-opacity:1;stroke:#fd9300;stroke-width:0;stroke-linecap:round;stroke-linejoin:round;stroke-miterlimit:10;stroke-dasharray:none;stroke-dashoffset:0;stroke-opacity:1;filter:url(#filter1681)" />
    <path
       inkscape:connector-curvature="0"
       id="path1685"
       d="m 237.01053,85.240639 -0.74589,-44.312683 12.02688,0.0031 12.02687,0.0031 V 85.243754 129.5533 H 249.0374 237.75641 Z"
       style="fill:#fd9300;fill-opacity:1;stroke:#fd9300;stroke-width:0;stroke-linecap:round;stroke-linejoin:round;stroke-miterlimit:10;stroke-dasharray:none;stroke-dashoffset:0;stroke-opacity:1" />
    <path
       inkscape:connector-curvature="0"
       id="path1687"
       d="m 237.01053,85.240639 -0.74589,-44.312683 12.02688,0.0031 12.02687,0.0031 V 85.243754 129.5533 H 249.0374 237.75641 Z"
       style="fill:#fd9300;fill-opacity:1;stroke:#fd9300;stroke-width:0;stroke-linecap:round;stroke-linejoin:round;stroke-miterlimit:10;stroke-dasharray:none;stroke-dashoffset:0;stroke-opacity:1" />
    <path
       inkscape:connector-curvature="0"
       id="path1689"
       d="m 237.01053,85.240639 -0.74589,-44.312683 12.02688,0.0031 12.02687,0.0031 V 85.243754 129.5533 H 249.0374 237.75641 Z"
       style="fill:#fd9300;fill-opacity:1;stroke:#fd9300;stroke-width:0;stroke-linecap:round;stroke-linejoin:round;stroke-miterlimit:10;stroke-dasharray:none;stroke-dashoffset:0;stroke-opacity:1" />
    <path
       inkscape:connector-curvature="0"
       id="path1691"
       d="m 237.53062,89.248812 c 0,-22.167476 -0.69159,-42.106775 -1.53688,-44.30955 -1.27779,-3.329882 0.64296,-4.005046 11.39389,-4.005046 h 12.93076 v 44.309553 44.309551 h -11.39388 -11.39389 z"
       style="fill:#fd9300;fill-opacity:1;stroke:#fd9300;stroke-width:0;stroke-linecap:round;stroke-linejoin:round;stroke-miterlimit:10;stroke-dasharray:none;stroke-dashoffset:0;stroke-opacity:1" />
    <path
       inkscape:connector-curvature="0"
       id="path1693"
       d="m 234.03503,129.19042 c 2.03765,-1.18682 2.21274,-4.63872 2.21274,-43.62487 V 43.229479 l -2.84495,-1.143532 c -1.89493,-0.761666 2.85521,-1.121314 14.22475,-1.077002 9.38834,0.03659 16.07397,0.326739 14.85697,0.644776 -2.0532,0.536557 -2.21274,3.709318 -2.21274,44.002748 0,33.556511 0.35916,43.569421 1.58052,44.062251 0.8693,0.35077 -5.53185,0.66538 -14.22475,0.69913 -11.31557,0.0439 -15.17672,-0.30473 -13.59254,-1.22743 z"
       style="fill:#fd9300;fill-opacity:1;stroke:#fd9300;stroke-width:0;stroke-linecap:round;stroke-linejoin:round;stroke-miterlimit:10;stroke-dasharray:none;stroke-dashoffset:0;stroke-opacity:1" />
    <path
       inkscape:connector-curvature="0"
       id="path1695"
       d="m 234.03503,129.19042 c 2.03765,-1.18682 2.21274,-4.63872 2.21274,-43.62487 V 43.229479 l -2.84495,-1.143532 c -1.91148,-0.768315 2.75593,-1.15721 14.22475,-1.185227 12.18229,-0.02976 16.43615,0.327313 14.85697,1.247105 -2.03845,1.187284 -2.21274,4.661874 -2.21274,44.110971 0,33.074654 0.35977,42.967344 1.58052,43.459924 0.8693,0.35077 -5.53185,0.66538 -14.22475,0.69913 -11.31557,0.0439 -15.17672,-0.30473 -13.59254,-1.22743 z"
       style="fill:#fd9300;fill-opacity:1;stroke:#fd9300;stroke-width:0;stroke-linecap:round;stroke-linejoin:round;stroke-miterlimit:10;stroke-dasharray:none;stroke-dashoffset:0;stroke-opacity:1" />
    <path
       inkscape:connector-curvature="0"
       id="path1697"
       d="m 234.26082,128.56918 c 1.72594,-1.72594 1.98695,-7.46161 1.98695,-43.663328 V 43.229479 l -2.84495,-1.143532 c -1.91148,-0.768315 2.75593,-1.15721 14.22475,-1.185227 12.18229,-0.02976 16.43615,0.327313 14.85697,1.247105 -2.03717,1.18654 -2.21274,4.624745 -2.21274,43.331244 0,31.013781 0.39802,42.440471 1.5173,43.559751 1.18013,1.18013 -1.93075,1.51731 -13.99896,1.51731 -14.1057,0 -15.33564,-0.18064 -13.52932,-1.98695 z"
       style="fill:#fd9300;fill-opacity:1;stroke:#fd9300;stroke-width:0;stroke-linecap:round;stroke-linejoin:round;stroke-miterlimit:10;stroke-dasharray:none;stroke-dashoffset:0;stroke-opacity:1" />
    <path
       inkscape:connector-curvature="0"
       id="path1699"
       d="m 238.99109,129.63387 c -3.12816,-0.38446 -4.0223,-1.0093 -3.47716,-2.42991 0.40361,-1.05179 0.73384,-20.64249 0.73384,-43.534882 V 42.046546 l 12.32812,-5.3e-4 12.32812,-5.29e-4 -0.34786,43.45078 -0.34786,43.450783 -6.60646,0.79358 c -3.63356,0.43647 -7.45996,0.70747 -8.5031,0.60222 -1.04315,-0.10525 -3.79159,-0.42426 -6.10764,-0.70891 z"
       style="fill:#fd9300;fill-opacity:1;stroke:#fd9300;stroke-width:0;stroke-linecap:round;stroke-linejoin:round;stroke-miterlimit:10;stroke-dasharray:none;stroke-dashoffset:0;stroke-opacity:1" />
    <path
       inkscape:connector-curvature="0"
       id="path1701"
       d="m 238.99109,129.63387 c -3.12816,-0.38446 -4.0223,-1.0093 -3.47716,-2.42991 0.40361,-1.05179 0.73384,-20.64249 0.73384,-43.534882 V 42.046546 l 12.32812,-5.3e-4 12.32812,-5.29e-4 -0.34786,43.45078 -0.34786,43.450783 -6.60646,0.79358 c -3.63356,0.43647 -7.45996,0.70747 -8.5031,0.60222 -1.04315,-0.10525 -3.79159,-0.42426 -6.10764,-0.70891 z"
       style="fill:#fd9300;fill-opacity:1;stroke:#fd9300;stroke-width:0;stroke-linecap:round;stroke-linejoin:round;stroke-miterlimit:10;stroke-dasharray:none;stroke-dashoffset:0;stroke-opacity:1" />
    <path
       inkscape:connector-curvature="0"
       id="path1703"
       d="m 238.36113,129.64089 c -2.55794,-0.38359 -3.36818,-1.0793 -2.84495,-2.44281 0.40237,-1.04856 0.73159,-20.63661 0.73159,-43.529002 V 42.046546 l 12.32812,-5.3e-4 12.32812,-5.29e-4 -0.34787,43.455629 -0.34787,43.455634 -5.83462,0.79972 c -6.04658,0.82878 -9.90096,0.80097 -16.01252,-0.11552 z"
       style="fill:#fd9300;fill-opacity:1;stroke:#fd9300;stroke-width:0;stroke-linecap:round;stroke-linejoin:round;stroke-miterlimit:10;stroke-dasharray:none;stroke-dashoffset:0;stroke-opacity:1" />
    <path
       inkscape:connector-curvature="0"
       id="path1705"
       d="m 237.10324,129.74706 c -1.41142,-0.41416 -2.02439,-1.40931 -1.58053,-2.566 0.39878,-1.0392 0.72506,-20.61959 0.72506,-43.511982 V 42.046546 l 12.32812,-7.94e-4 12.32812,-7.94e-4 -0.36485,43.250593 c -0.20067,23.787829 -0.58337,43.469109 -0.85044,43.736179 -0.82198,0.82197 -20.13721,1.43365 -22.58548,0.71523 z"
       style="fill:#fd9300;fill-opacity:1;stroke:#fd9300;stroke-width:0;stroke-linecap:round;stroke-linejoin:round;stroke-miterlimit:10;stroke-dasharray:none;stroke-dashoffset:0;stroke-opacity:1" />
    <path
       inkscape:connector-curvature="0"
       id="path1715"
       d="m 234.96001,128.04383 c 0.4741,-1.2355 0.86201,-21.36595 0.86201,-44.734342 V 40.821501 h 12.82885 12.82886 l -0.40265,44.733945 -0.40265,44.733944 -13.28822,5.3e-4 c -11.53375,2.6e-4 -13.1744,-0.29619 -12.4262,-2.24596 z"
       style="fill:#fd9300;fill-opacity:1;stroke:#fd9300;stroke-width:0;stroke-linecap:round;stroke-linejoin:round;stroke-miterlimit:10;stroke-dasharray:none;stroke-dashoffset:0;stroke-opacity:1" />
    <path
       inkscape:connector-curvature="0"
       id="path1717"
       d="m 234.96001,128.04383 c 0.4741,-1.2355 0.86201,-21.36595 0.86201,-44.734342 V 40.821501 h 12.78124 12.78124 v 44.734342 44.734337 h -13.64325 c -11.85741,0 -13.53042,-0.29403 -12.78124,-2.24635 z"
       style="fill:#fd9300;fill-opacity:1;stroke:#fd9300;stroke-width:0;stroke-linecap:round;stroke-linejoin:round;stroke-miterlimit:10;stroke-dasharray:none;stroke-dashoffset:0;stroke-opacity:1" />
    <path
       inkscape:connector-curvature="0"
       id="path1719"
       d="m 234.92692,127.09487 c 0.47097,-1.75742 0.86504,-21.88787 0.8757,-44.734337 l 0.0194,-41.539032 h 12.78124 12.78124 v 44.734342 44.734337 h -13.65694 c -13.46972,0 -13.64521,-0.0438 -12.80063,-3.19531 z"
       style="fill:#fd9300;fill-opacity:1;stroke:#fd9300;stroke-width:0;stroke-linecap:round;stroke-linejoin:round;stroke-miterlimit:10;stroke-dasharray:none;stroke-dashoffset:0;stroke-opacity:1" />
    <text
       id="text1723"
       y="181.00931"
       x="211.17754"
       style="font-style:normal;font-weight:normal;font-size:10.5833px;line-height:1.25;font-family:sans-serif;fill:#000000;fill-opacity:1;stroke:none;stroke-width:0.264583"
       xml:space="preserve"><tspan
         style="stroke-width:0.264583"
         y="181.00931"
         x="211.17754"
         id="tspan1721"
         sodipodi:role="line"></tspan></text>
  </g>
  <g
     inkscape:label="Layer 5"
     id="layer6"
     inkscape:groupmode="layer">
    <text
       transform="scale(1.1434354,0.87455749)"
       id="text1728"
       y="151.72137"
       x="183.55447"
       style="font-style:normal;font-variant:normal;font-weight:normal;font-stretch:normal;font-size:202.225px;line-height:1.25;font-family:Copperplate;-inkscape-font-specification:'Copperplate, Normal';font-variant-ligatures:normal;font-variant-caps:normal;font-variant-numeric:normal;font-variant-east-asian:normal;fill:#ff9300;fill-opacity:1;stroke:none;stroke-width:0.264583"
       xml:space="preserve"><tspan
         style="font-style:normal;font-variant:normal;font-weight:normal;font-stretch:normal;font-size:202.225px;font-family:Copperplate;-inkscape-font-specification:'Copperplate, Normal';font-variant-ligatures:normal;font-variant-caps:normal;font-variant-numeric:normal;font-variant-east-asian:normal;fill:#ff9300;fill-opacity:1;stroke-width:0.264583"
         y="151.72137"
         x="183.55447"
         id="tspan1726"
         sodipodi:role="line">I</tspan></text>
  </g>
</svg>
