<?xml version="1.0" encoding="UTF-8" standalone="no"?>
<svg
   width="174"
   height="72"
   viewBox="0 0 174 72"
   fill="none"
   version="1.1"
   id="svg103"
   sodipodi:docname="plenty.svg"
   inkscape:version="1.1.2 (0a00cf5339, 2022-02-04)"
   xmlns:inkscape="http://www.inkscape.org/namespaces/inkscape"
   xmlns:sodipodi="http://sodipodi.sourceforge.net/DTD/sodipodi-0.dtd"
   xmlns="http://www.w3.org/2000/svg"
   xmlns:svg="http://www.w3.org/2000/svg">
  <sodipodi:namedview
     id="namedview105"
     pagecolor="#ffffff"
     bordercolor="#666666"
     borderopacity="1.0"
     inkscape:pageshadow="2"
     inkscape:pageopacity="0.0"
     inkscape:pagecheckerboard="0"
     showgrid="false"
     inkscape:zoom="9.8103448"
     inkscape:cx="144.89807"
     inkscape:cy="35.982425"
     inkscape:window-width="1920"
     inkscape:window-height="1011"
     inkscape:window-x="0"
     inkscape:window-y="0"
     inkscape:window-maximized="1"
     inkscape:current-layer="svg103" />
  <g
     clip-path="url(#clip0_514_1121)"
     id="g96"
     transform="matrix(2.1217412,0,0,2.1217412,-3.3652236,-3.3652236)">
    <path
       d="m 17.9263,10.6526 c 0,1.1074 -0.2639,2.1455 -0.7918,3.1145 -0.5082,0.9689 -1.3196,1.75 -2.4339,2.3432 -1.0948,0.5932 -2.4828,0.8899 -4.1641,0.8899 H 7.10547 v 7.9491 H 3 V 4.24585 h 7.5365 c 1.5835,0 2.9324,0.27683 4.0468,0.83051 1.1143,0.55367 1.9452,1.31498 2.4926,2.28391 0.5669,0.96893 0.8504,2.06639 0.8504,3.29233 z m -7.5658,2.9958 c 1.1339,0 1.9746,-0.257 2.522,-0.7712 0.5473,-0.5339 0.821,-1.2754 0.821,-2.2246 0,-2.01691 -1.1143,-3.02538 -3.343,-3.02538 H 7.10547 v 6.02118 z"
       fill="#6202ef"
       id="path74" />
    <path
       d="M 22.2255,3 V 24.9492 H 18.1201 V 3 Z"
       fill="#6202ef"
       id="path76" />
    <path
       d="m 38.6628,16.3772 c 0,0.5932 -0.0391,1.1271 -0.1173,1.6017 H 26.669 c 0.0977,1.1864 0.5083,2.1158 1.2316,2.7881 0.7234,0.6723 1.6129,1.0085 2.6686,1.0085 1.5249,0 2.6099,-0.6624 3.255,-1.9873 h 4.4281 c -0.4692,1.5819 -1.3685,2.887 -2.6979,3.9153 -1.3294,1.0085 -2.9618,1.5127 -4.8972,1.5127 -1.564,0 -2.9716,-0.3461 -4.2228,-1.0381 -1.2316,-0.7119 -2.1994,-1.7105 -2.9032,-2.9958 -0.6842,-1.2853 -1.0263,-2.7684 -1.0263,-4.4492 0,-1.7006 0.3421,-3.1935 1.0263,-4.4788 0.6843,-1.2854 1.6422,-2.27407 2.8739,-2.96616 C 27.6367,8.59605 29.0541,8.25 30.6572,8.25 c 1.5444,0 2.9227,0.33616 4.1348,1.00848 1.2316,0.67232 2.1798,1.63132 2.8445,2.87712 0.6842,1.226 1.0263,2.6399 1.0263,4.2416 z M 34.4107,15.1907 C 34.3912,14.1229 34.01,13.2726 33.2671,12.6398 32.5242,11.9873 31.6151,11.661 30.5399,11.661 c -1.0166,0 -1.8768,0.3164 -2.5806,0.9492 -0.6843,0.613 -1.1046,1.4732 -1.261,2.5805 z"
       fill="#6202ef"
       id="path78" />
    <path
       d="m 47.9412,8.27979 c 1.9354,0 3.4994,0.62289 4.692,1.86861 1.1925,1.226 1.7888,2.9464 1.7888,5.1611 v 9.6398 H 50.3165 V 15.873 c 0,-1.3051 -0.3226,-2.3036 -0.9677,-2.9957 -0.6452,-0.7119 -1.5249,-1.0678 -2.6393,-1.0678 -1.1338,0 -2.0331,0.3559 -2.6978,1.0678 -0.6452,0.6921 -0.9678,1.6906 -0.9678,2.9957 v 9.0763 H 38.9385 V 8.51708 h 4.1054 V 10.5637 C 43.5913,9.85183 44.2854,9.29816 45.126,8.90268 45.9862,8.48742 46.9246,8.27979 47.9412,8.27979 Z"
       fill="#6202ef"
       id="path80" />
    <path
       d="m 60.3851,11.928 v 7.9492 c 0,0.5537 0.1271,0.959 0.3812,1.2161 0.2737,0.2373 0.7234,0.3559 1.349,0.3559 h 1.9061 v 3.5 h -2.5806 c -3.4603,0 -5.1905,-1.7005 -5.1905,-5.1017 V 11.928 H 54.3149 V 8.51695 h 1.9354 V 4.45337 h 4.1348 v 4.06358 h 3.6363 V 11.928 Z"
       fill="#6202ef"
       id="path82" />
    <path
       d="M 79.7949,8.51709 69.7365,32.7206 H 65.3671 L 68.8861,24.5341 62.376,8.51709 H 66.98 L 71.1734,19.9959 75.4255,8.51709 Z"
       fill="#6202ef"
       id="path84" />
    <path
       d="m 83.5979,23.1495 c 0,1.3911 -1.1276,2.5187 -2.5187,2.5187 -1.391,0 -2.5187,-1.1276 -2.5187,-2.5187 0,-1.391 1.1277,-2.5186 2.5187,-2.5186 1.3911,0 2.5187,1.1276 2.5187,2.5186 z"
       fill="#6202ef"
       id="path86" />
    <path
       d="m 43.2728,30.6928 c 0.2534,0.0473 0.4618,0.174 0.6251,0.3802 0.1632,0.2063 0.2449,0.4426 0.2449,0.7089 0,0.2406 -0.0602,0.4533 -0.1805,0.6381 -0.116,0.1804 -0.2857,0.3222 -0.5091,0.4253 C 43.2298,32.9484 42.9656,33 42.6605,33 h -1.9398 v -4.4983 h 1.856 c 0.3051,0 0.5672,0.0494 0.7863,0.1482 0.2234,0.0988 0.3909,0.2363 0.5027,0.4124 0.116,0.1762 0.174,0.376 0.174,0.5994 0,0.2621 -0.0709,0.4812 -0.2127,0.6573 -0.1375,0.1762 -0.3222,0.3008 -0.5542,0.3738 z m -1.6499,-0.3351 h 0.8249 c 0.2149,0 0.3803,-0.0473 0.4963,-0.1418 0.116,-0.0988 0.174,-0.2384 0.174,-0.4189 0,-0.1804 -0.058,-0.3201 -0.174,-0.4189 -0.116,-0.0988 -0.2814,-0.1482 -0.4963,-0.1482 h -0.8249 z m 0.9087,1.9076 c 0.2191,0 0.3888,-0.0516 0.5091,-0.1547 0.1246,-0.1031 0.1869,-0.2492 0.1869,-0.4382 0,-0.1933 -0.0644,-0.3437 -0.1933,-0.4511 -0.1289,-0.1117 -0.3029,-0.1676 -0.522,-0.1676 h -0.8894 v 1.2116 z"
       fill="#4e5d78"
       id="path88" />
    <path
       d="m 47.1337,29.2298 v 1.1278 h 1.5144 v 0.7153 h -1.5144 v 1.1923 h 1.7078 v 0.7347 h -2.6101 v -4.5048 h 2.6101 v 0.7347 z"
       fill="#4e5d78"
       id="path90" />
    <path
       d="m 54.0916,28.5017 v 0.7282 H 52.8929 V 33 H 51.9906 V 29.2299 H 50.792 v -0.7282 z"
       fill="#4e5d78"
       id="path92" />
    <path
       d="m 58.8777,32.1427 h -1.7916 l -0.2964,0.8572 h -0.9474 l 1.6176,-4.5048 h 1.0505 l 1.6176,4.5048 h -0.9538 z m -0.2449,-0.7218 -0.6509,-1.8818 -0.6509,1.8818 z"
       fill="#4e5d78"
       id="path94" />
  </g>
  <defs
     id="defs101">
    <clipPath
       id="clip0_514_1121">
      <rect
         width="81"
         height="30"
         fill="white"
         transform="translate(3 3)"
         id="rect98" />
    </clipPath>
  </defs>
</svg>
